<?xml version="1.0" encoding="UTF-8"?>
<svg version="1.1" xmlns="http://www.w3.org/2000/svg" width="531" height="384">
<path d="M0 0 C4.44934653 0.22136052 6.35777536 1.93800267 9.3125 5.125 C11.97552339 7.97015253 14.68658502 10.62481571 17.64453125 13.15625 C22.81948625 17.63100351 27.57541486 22.50493637 32.375 27.375 C34.1513414 29.17675401 35.92987339 30.97635183 37.7109375 32.7734375 C38.48743652 33.56153809 39.26393555 34.34963867 40.06396484 35.16162109 C41.87225957 37.05762341 41.87225957 37.05762341 44 38 C44 38.66 44 39.32 44 40 C44.66 40 45.32 40 46 40 C46.38613383 42.62571005 46.38493778 44.3843879 44.95703125 46.66796875 C43.625 48.3125 43.625 48.3125 41 51 C40.34 51 39.68 51 39 51 C38.63310059 51.85694458 38.63310059 51.85694458 38.25878906 52.73120117 C36.77869478 55.39887305 35.04076818 57.16853761 32.859375 59.30078125 C32.03566406 60.11353516 31.21195313 60.92628906 30.36328125 61.76367188 C29.50089844 62.60478516 28.63851562 63.44589844 27.75 64.3125 C20.89047162 70.98203262 20.89047162 70.98203262 14.515625 78.10546875 C13.68546875 79.06066406 12.8553125 80.01585938 12 81 C11.34 81 10.68 81 10 81 C10 81.66 10 82.32 10 83 C9.34 83 8.68 83 8 83 C7.5978125 83.8971875 7.5978125 83.8971875 7.1875 84.8125 C6.00082594 86.99847854 4.90400887 88.41332594 3 90 C2.34 90 1.68 90 1 90 C1 90.66 1 91.32 1 92 C0.34 92 -0.32 92 -1 92 C-1.30164063 92.804375 -1.30164063 92.804375 -1.609375 93.625 C-3.1963103 96.33527153 -5.20776124 98.23494189 -7.49462891 100.36401367 C-18.63456976 110.74631459 -25.08703582 123.61793677 -26 139 C-26.05285156 139.88171875 -26.10570312 140.7634375 -26.16015625 141.671875 C-26.62697268 157.01592803 -22.35908902 171.79574791 -13 184 C-12.16662109 184.80630859 -12.16662109 184.80630859 -11.31640625 185.62890625 C-10 187 -10 187 -10 189 C-9.34 189 -8.68 189 -8 189 C-8 189.66 -8 190.32 -8 191 C-7.42507812 191.24621094 -6.85015625 191.49242187 -6.2578125 191.74609375 C-3.64360173 193.19793053 -1.93663792 194.90287549 0.125 197.0625 C2.77905 199.91571933 2.77905 199.91571933 6 202 C6 202.66 6 203.32 6 204 C6.53109375 204.20238281 7.0621875 204.40476563 7.609375 204.61328125 C11.04217587 206.60453012 13.50896826 209.34466874 16.25 212.1875 C20.37011325 216.3901416 24.52039176 220.42588359 29.01171875 224.234375 C33.1993131 227.9530246 37.07776397 232.00542765 41 236 C39.37159701 239.40219909 37.51714616 242.16821057 35 245 C34.34 245 33.68 245 33 245 C33 245.66 33 246.32 33 247 C31.625 248.625 31.625 248.625 30 250 C29.34 250 28.68 250 28 250 C28 250.66 28 251.32 28 252 C27.34 252 26.68 252 26 252 C25.63853882 252.85150635 25.63853882 252.85150635 25.26977539 253.72021484 C23.74577817 256.45643596 21.92221708 258.28631807 19.68359375 260.4765625 C18.41418945 261.72953125 18.41418945 261.72953125 17.11914062 263.0078125 C16.23419922 263.87148438 15.34925781 264.73515625 14.4375 265.625 C12.68402618 267.34414185 10.93261425 269.06539013 9.18359375 270.7890625 C8.01654907 271.92915771 8.01654907 271.92915771 6.82592773 273.09228516 C4.93913872 274.87557625 4.93913872 274.87557625 4 277 C3.34 277 2.68 277 2 277 C2 277.66 2 278.32 2 279 C-2.51720311 279.36625971 -2.51720311 279.36625971 -4.8125 277.625 C-6 276 -6 276 -6 274 C-6.66 274 -7.32 274 -8 274 C-11.04395069 271.26044438 -13.44396229 268.81936528 -15 265 C-15.66 265 -16.32 265 -17 265 C-17 264.34 -17 263.68 -17 263 C-17.57202148 262.75467529 -18.14404297 262.50935059 -18.73339844 262.2565918 C-21.38736797 260.78524527 -23.14499183 259.06447599 -25.265625 256.89453125 C-26.07386719 256.07533203 -26.88210937 255.25613281 -27.71484375 254.41210938 C-28.55144531 253.55423828 -29.38804687 252.69636719 -30.25 251.8125 C-35.34891576 246.60552245 -40.45131595 241.53209577 -45.98583984 236.78930664 C-49.89726531 233.31453849 -53.52030592 229.54117261 -57.1875 225.8125 C-62.89397171 219.94699645 -62.89397171 219.94699645 -69.05078125 214.57421875 C-69.69402344 214.05472656 -70.33726562 213.53523437 -71 213 C-71 212.34 -71 211.68 -71 211 C-71.66 211 -72.32 211 -73 211 C-73 210.34 -73 209.68 -73 209 C-73.66 209 -74.32 209 -75 209 C-75 208.34 -75 207.68 -75 207 C-75.639375 206.731875 -76.27875 206.46375 -76.9375 206.1875 C-79 205 -79 205 -80 202 C-80.66 202 -81.32 202 -82 202 C-82 201.34 -82 200.68 -82 200 C-82.8353125 199.62875 -82.8353125 199.62875 -83.6875 199.25 C-96.20234475 192.48521905 -105.13650446 177.40604709 -109.375 164.25 C-112.84863853 151.70630532 -113.32174981 138.65628726 -110 126 C-109.81695312 125.20335937 -109.63390625 124.40671875 -109.4453125 123.5859375 C-107.288718 115.1991811 -102.76617093 108.1492564 -98 101 C-97.34 101 -96.68 101 -96 101 C-95.67261841 100.18257324 -95.67261841 100.18257324 -95.33862305 99.34863281 C-93.55652341 96.22191413 -91.1380162 93.91100199 -88.58203125 91.421875 C-88.04656174 90.89160706 -87.51109222 90.36133911 -86.95939636 89.81500244 C-85.24846248 88.12182944 -83.53101232 86.43547792 -81.8125 84.75 C-79.56558359 82.53990779 -77.32191199 80.32659763 -75.08203125 78.109375 C-74.53875183 77.57168488 -73.99547241 77.03399475 -73.43572998 76.48001099 C-70.04869049 73.10580169 -66.85781648 69.62707448 -63.75952148 65.984375 C-59.92843129 61.6637005 -55.73613482 57.67663938 -51.625 53.625 C-49.82324599 51.8486586 -48.02364817 50.07012661 -46.2265625 48.2890625 C-45.43846191 47.51256348 -44.65036133 46.73606445 -43.83837891 45.93603516 C-41.94237659 44.12774043 -41.94237659 44.12774043 -41 42 C-40.34 42 -39.68 42 -39 42 C-39 41.34 -39 40.68 -39 40 C-38.34 40 -37.68 40 -37 40 C-37 39.34 -37 38.68 -37 38 C-36.34 38 -35.68 38 -35 38 C-34.731875 37.401875 -34.46375 36.80375 -34.1875 36.1875 C-33.00082594 34.00152146 -31.90400887 32.58667406 -30 31 C-29.34 31 -28.68 31 -28 31 C-27.77441406 30.44570313 -27.54882812 29.89140625 -27.31640625 29.3203125 C-25.61133714 26.31493845 -23.42200049 24.27012997 -20.9375 21.875 C-17.53546517 18.75894235 -17.53546517 18.75894235 -15 15 C-14.34 15 -13.68 15 -13 15 C-12.773125 14.443125 -12.54625 13.88625 -12.3125 13.3125 C-10.62449964 10.33840412 -8.53323483 8.27991135 -6 6 C-5.34 6 -4.68 6 -4 6 C-3.71125 5.38125 -3.4225 4.7625 -3.125 4.125 C-2 2 -2 2 0 0 Z " fill="#CAD4E8" transform="translate(232,7)"/>
<path d="M0 0 C1.32 0.33 2.64 0.66 4 1 C4 1.66 4 2.32 4 3 C4.66 3 5.32 3 6 3 C6 3.66 6 4.32 6 5 C6.99 5.33 7.98 5.66 9 6 C9 6.66 9 7.32 9 8 C9.66 8 10.32 8 11 8 C11 8.66 11 9.32 11 10 C11.56750977 10.24081299 12.13501953 10.48162598 12.71972656 10.72973633 C15.46000636 12.25625408 17.29039291 14.08200967 19.484375 16.32421875 C20.33773437 17.18853516 21.19109375 18.05285156 22.0703125 18.94335938 C22.95460938 19.84892578 23.83890625 20.75449219 24.75 21.6875 C30.04748495 27.09109184 35.33347316 32.38739256 41.08398438 37.30883789 C44.50966309 40.33249697 47.67788279 43.61342479 50.875 46.875 C52.18257274 48.2080119 53.49236015 49.53885616 54.8046875 50.8671875 C55.37171387 51.44581543 55.93874023 52.02444336 56.52294922 52.62060547 C57.97110166 54.10372935 57.97110166 54.10372935 60 55 C60 55.66 60 56.32 60 57 C60.66 57 61.32 57 62 57 C62 57.66 62 58.32 62 59 C62.66 59 63.32 59 64 59 C64 59.66 64 60.32 64 61 C65.485 61.495 65.485 61.495 67 62 C67 62.66 67 63.32 67 64 C67.53109375 64.20625 68.0621875 64.4125 68.609375 64.625 C72.00773436 66.57961192 74.51055928 69.22123717 77.25 72 C77.80429687 72.5465625 78.35859375 73.093125 78.9296875 73.65625 C83 77.7466133 83 77.7466133 83 80 C83.57234375 80.25910156 84.1446875 80.51820313 84.734375 80.78515625 C97.69092229 87.73254626 106.44717952 102.55847054 110.75 116.1875 C116.42662541 135.56063438 112.65458617 154.38465126 104 172 C103.34 172.99 102.68 173.98 102 175 C101.34 175 100.68 175 100 175 C99.88785156 175.59167969 99.77570313 176.18335938 99.66015625 176.79296875 C97.8679151 182.78478089 91.88220342 187.06575209 87.28125 190.9765625 C82.6415964 195.09187169 78.35412797 199.58729632 74 204 C71.45100946 206.55646558 68.89509692 209.10246347 66.3125 211.625 C63.88724324 213.97085755 63.88724324 213.97085755 62 217 C61.34 217 60.68 217 60 217 C59.731875 217.598125 59.46375 218.19625 59.1875 218.8125 C58.00082594 220.99847854 56.90400887 222.41332594 55 224 C54.34 224 53.68 224 53 224 C52.76667969 224.56203125 52.53335938 225.1240625 52.29296875 225.703125 C50.68062924 228.56734142 48.6806438 230.47252021 46.3125 232.75 C43.28394361 235.67022545 40.41112458 238.64192186 37.66796875 241.828125 C33.35297015 246.81351145 28.66512876 251.38592734 23.9609375 256 C19.9986728 259.91636974 16.24107092 263.93324527 12.60302734 268.15234375 C10.41056433 270.67938611 8.14305354 273.09904818 5.8125 275.5 C4.99394531 276.3559375 4.17539062 277.211875 3.33203125 278.09375 C1 280 1 280 -3 280 C-3 279.34 -3 278.68 -3 278 C-3.556875 277.773125 -4.11375 277.54625 -4.6875 277.3125 C-7.66159588 275.62449964 -9.72008865 273.53323483 -12 271 C-12 270.34 -12 269.68 -12 269 C-12.58136719 268.74734375 -13.16273438 268.4946875 -13.76171875 268.234375 C-16.26071618 266.85621935 -17.84834704 265.31416075 -19.8125 263.25 C-22.88669204 260.09009628 -26.05349416 257.18579929 -29.42578125 254.3515625 C-31.74832645 252.35751625 -33.86144452 250.18947347 -36 248 C-36.7734375 247.29488281 -37.546875 246.58976563 -38.34375 245.86328125 C-39.1790625 245.08339844 -40.014375 244.30351562 -40.875 243.5 C-41.67679687 242.7678125 -42.47859375 242.035625 -43.3046875 241.28125 C-45 239 -45 239 -45.1640625 236.63671875 C-43.42891701 232.70643953 -40.60350361 230.22162281 -37.5 227.3125 C-36.30010274 226.16482757 -35.10209224 225.01517829 -33.90625 223.86328125 C-33.37322266 223.36094971 -32.84019531 222.85861816 -32.29101562 222.34106445 C-30.88028234 221.00901027 -30.88028234 221.00901027 -30 219 C-29.34 219 -28.68 219 -28 219 C-27.65884155 218.16879639 -27.65884155 218.16879639 -27.31079102 217.32080078 C-25.61932567 214.32600295 -23.48217638 212.27633764 -21.02734375 209.8671875 C-20.54423233 209.38927765 -20.06112091 208.9113678 -19.56336975 208.41897583 C-18.02610959 206.89946386 -16.48230674 205.3868361 -14.9375 203.875 C-13.39002523 202.35515441 -11.84404074 200.83386581 -10.30091858 199.30960083 C-8.90429199 197.93081258 -7.50291677 196.55683935 -6.10131836 195.18310547 C-3.96740455 193.18319548 -3.96740455 193.18319548 -3 191 C-2.34 191 -1.68 191 -1 191 C-0.73590332 190.40413086 -0.47180664 189.80826172 -0.19970703 189.19433594 C1.04842894 186.91142057 2.26372335 185.61308216 4.1953125 183.890625 C13.36359602 175.42579034 19.41943198 167.62380701 24 156 C24.56460938 154.63875 24.56460938 154.63875 25.140625 153.25 C29.23406898 141.34179932 28.45223559 125.64873708 24 114 C23.7215625 113.16597656 23.443125 112.33195312 23.15625 111.47265625 C18.619734 98.78214381 9.46985639 89.06189722 -1.36328125 81.30859375 C-1.90339844 80.87675781 -2.44351563 80.44492188 -3 80 C-3 79.34 -3 78.68 -3 78 C-3.66 78 -4.32 78 -5 78 C-6.625 76.625 -6.625 76.625 -8 75 C-8 74.34 -8 73.68 -8 73 C-8.66 73 -9.32 73 -10 73 C-10 72.34 -10 71.68 -10 71 C-10.66 71 -11.32 71 -12 71 C-12 70.34 -12 69.68 -12 69 C-12.57669434 68.75000244 -13.15338867 68.50000488 -13.74755859 68.24243164 C-16.31087205 66.82852506 -17.99597808 65.21487926 -20.0390625 63.12109375 C-21.15667969 61.98704102 -21.15667969 61.98704102 -22.296875 60.83007812 C-23.06515625 60.04052734 -23.8334375 59.25097656 -24.625 58.4375 C-26.15663169 56.87152109 -27.69038195 55.30761061 -29.2265625 53.74609375 C-29.90283691 53.05185303 -30.57911133 52.3576123 -31.27587891 51.64233398 C-32.91488551 49.92043505 -32.91488551 49.92043505 -35 49 C-35 48.34 -35 47.68 -35 47 C-36.32 46.34 -37.64 45.68 -39 45 C-39 43.35 -39 41.7 -39 40 C-38.34 40 -37.68 40 -37 40 C-37 39.34 -37 38.68 -37 38 C-36.319375 37.46375 -35.63875 36.9275 -34.9375 36.375 C-32.57070497 34.46142104 -30.87567407 32.78970564 -28.9375 30.5 C-25.1935454 26.10023073 -21.12866442 22.07112189 -16.99975586 18.03710938 C-14.13974769 15.29471497 -14.13974769 15.29471497 -12 12 C-11.34 12 -10.68 12 -10 12 C-10 11.34 -10 10.68 -10 10 C-9.34 10 -8.68 10 -8 10 C-8 9.34 -8 8.68 -8 8 C-6.625 6.375 -6.625 6.375 -5 5 C-4.34 5 -3.68 5 -3 5 C-3 4.34 -3 3.68 -3 3 C-2.34 3 -1.68 3 -1 3 C-0.67 2.01 -0.34 1.02 0 0 Z " fill="#CAD4E8" transform="translate(301,82)"/>
<path d="M0 0 C1.32 0.33 2.64 0.66 4 1 C4 1.66 4 2.32 4 3 C4.66 3 5.32 3 6 3 C6 3.66 6 4.32 6 5 C6.99 5.33 7.98 5.66 9 6 C9 6.66 9 7.32 9 8 C9.66 8 10.32 8 11 8 C11 8.66 11 9.32 11 10 C11.56750977 10.24081299 12.13501953 10.48162598 12.71972656 10.72973633 C15.46000636 12.25625408 17.29039291 14.08200967 19.484375 16.32421875 C20.33773437 17.18853516 21.19109375 18.05285156 22.0703125 18.94335938 C22.95460938 19.84892578 23.83890625 20.75449219 24.75 21.6875 C30.04748495 27.09109184 35.33347316 32.38739256 41.08398438 37.30883789 C44.50966309 40.33249697 47.67788279 43.61342479 50.875 46.875 C52.18257274 48.2080119 53.49236015 49.53885616 54.8046875 50.8671875 C55.37171387 51.44581543 55.93874023 52.02444336 56.52294922 52.62060547 C57.97110166 54.10372935 57.97110166 54.10372935 60 55 C60 55.66 60 56.32 60 57 C60.66 57 61.32 57 62 57 C62 57.66 62 58.32 62 59 C62.66 59 63.32 59 64 59 C64 59.66 64 60.32 64 61 C65.485 61.495 65.485 61.495 67 62 C67 62.66 67 63.32 67 64 C67.53109375 64.20625 68.0621875 64.4125 68.609375 64.625 C72.00773436 66.57961192 74.51055928 69.22123717 77.25 72 C77.80429687 72.5465625 78.35859375 73.093125 78.9296875 73.65625 C83 77.7466133 83 77.7466133 83 80 C82.36964844 79.74347656 81.73929687 79.48695313 81.08984375 79.22265625 C76.9323457 77.57752744 72.75113549 76.00138623 68.5625 74.4375 C67.72912109 74.12103516 66.89574219 73.80457031 66.03710938 73.47851562 C51.07200204 67.90652705 33.76387237 68.26569528 19.08496094 74.86035156 C16.17449984 76.30269054 13.3778719 77.86892575 10.57421875 79.51171875 C8 81 8 81 5 82 C5.5053125 82.54269531 6.010625 83.08539063 6.53125 83.64453125 C7.1809375 84.35996094 7.830625 85.07539063 8.5 85.8125 C9.1496875 86.52019531 9.799375 87.22789062 10.46875 87.95703125 C12 90 12 90 12 93 C11.33613281 92.39671875 10.67226563 91.7934375 9.98828125 91.171875 C9.10527344 90.37265625 8.22226562 89.5734375 7.3125 88.75 C6.44238281 87.96109375 5.57226562 87.1721875 4.67578125 86.359375 C2.89258596 84.7870393 1.05447813 83.27488254 -0.83203125 81.828125 C-1.54746094 81.22484375 -2.26289063 80.6215625 -3 80 C-3 79.34 -3 78.68 -3 78 C-3.66 78 -4.32 78 -5 78 C-6.625 76.625 -6.625 76.625 -8 75 C-8 74.34 -8 73.68 -8 73 C-8.66 73 -9.32 73 -10 73 C-10 72.34 -10 71.68 -10 71 C-10.66 71 -11.32 71 -12 71 C-12 70.34 -12 69.68 -12 69 C-12.57669434 68.75000244 -13.15338867 68.50000488 -13.74755859 68.24243164 C-16.31087205 66.82852506 -17.99597808 65.21487926 -20.0390625 63.12109375 C-21.15667969 61.98704102 -21.15667969 61.98704102 -22.296875 60.83007812 C-23.44929688 59.64575195 -23.44929688 59.64575195 -24.625 58.4375 C-26.15663169 56.87152109 -27.69038195 55.30761061 -29.2265625 53.74609375 C-29.90283691 53.05185303 -30.57911133 52.3576123 -31.27587891 51.64233398 C-32.91488551 49.92043505 -32.91488551 49.92043505 -35 49 C-35 48.34 -35 47.68 -35 47 C-36.32 46.34 -37.64 45.68 -39 45 C-39 43.35 -39 41.7 -39 40 C-38.34 40 -37.68 40 -37 40 C-37 39.34 -37 38.68 -37 38 C-36.319375 37.46375 -35.63875 36.9275 -34.9375 36.375 C-32.57070497 34.46142104 -30.87567407 32.78970564 -28.9375 30.5 C-25.1935454 26.10023073 -21.12866442 22.07112189 -16.99975586 18.03710938 C-14.13974769 15.29471497 -14.13974769 15.29471497 -12 12 C-11.34 12 -10.68 12 -10 12 C-10 11.34 -10 10.68 -10 10 C-9.34 10 -8.68 10 -8 10 C-8 9.34 -8 8.68 -8 8 C-6.625 6.375 -6.625 6.375 -5 5 C-4.34 5 -3.68 5 -3 5 C-3 4.34 -3 3.68 -3 3 C-2.34 3 -1.68 3 -1 3 C-0.67 2.01 -0.34 1.02 0 0 Z " fill="#A6B7DA" transform="translate(301,82)"/>
<path d="M0 0 C3.42280517 1.46582015 5.56480483 3.38062255 8.125 6.0625 C10.77905 8.91571933 10.77905 8.91571933 14 11 C14 11.66 14 12.32 14 13 C14.79664063 13.30357422 14.79664063 13.30357422 15.609375 13.61328125 C19.04217587 15.60453012 21.50896826 18.34466874 24.25 21.1875 C28.37011325 25.3901416 32.52039176 29.42588359 37.01171875 33.234375 C41.1993131 36.9530246 45.07776397 41.00542765 49 45 C47.37159701 48.40219909 45.51714616 51.16821057 43 54 C42.34 54 41.68 54 41 54 C41 54.66 41 55.32 41 56 C39.625 57.625 39.625 57.625 38 59 C37.34 59 36.68 59 36 59 C36 59.66 36 60.32 36 61 C35.34 61 34.68 61 34 61 C33.75902588 61.5676709 33.51805176 62.1353418 33.26977539 62.72021484 C31.74577817 65.45643596 29.92221708 67.28631807 27.68359375 69.4765625 C26.41418945 70.72953125 26.41418945 70.72953125 25.11914062 72.0078125 C24.23419922 72.87148438 23.34925781 73.73515625 22.4375 74.625 C20.68402618 76.34414185 18.93261425 78.06539013 17.18359375 79.7890625 C16.40556396 80.54912598 15.62753418 81.30918945 14.82592773 82.09228516 C12.93913872 83.87557625 12.93913872 83.87557625 12 86 C11.34 86 10.68 86 10 86 C10 86.66 10 87.32 10 88 C5.48279689 88.36625971 5.48279689 88.36625971 3.1875 86.625 C2 85 2 85 2 83 C1.34 83 0.68 83 0 83 C-3.04395069 80.26044438 -5.44396229 77.81936528 -7 74 C-7.66 74 -8.32 74 -9 74 C-9 73.34 -9 72.68 -9 72 C-9.57202148 71.75467529 -10.14404297 71.50935059 -10.73339844 71.2565918 C-13.38736797 69.78524527 -15.14499183 68.06447599 -17.265625 65.89453125 C-18.47798828 64.66573242 -18.47798828 64.66573242 -19.71484375 63.41210938 C-20.55144531 62.55423828 -21.38804687 61.69636719 -22.25 60.8125 C-27.34891576 55.60552245 -32.45131595 50.53209577 -37.98583984 45.78930664 C-41.89726531 42.31453849 -45.52030592 38.54117261 -49.1875 34.8125 C-54.89397171 28.94699645 -54.89397171 28.94699645 -61.05078125 23.57421875 C-61.69402344 23.05472656 -62.33726562 22.53523438 -63 22 C-63 21.34 -63 20.68 -63 20 C-63.66 20 -64.32 20 -65 20 C-65 19.34 -65 18.68 -65 18 C-65.66 18 -66.32 18 -67 18 C-67 17.34 -67 16.68 -67 16 C-67.639375 15.731875 -68.27875 15.46375 -68.9375 15.1875 C-71 14 -71 14 -72 11 C-72.66 11 -73.32 11 -74 11 C-74 10.34 -74 9.68 -74 9 C-71.03 9.99 -68.06 10.98 -65 12 C-65 12.66 -65 13.32 -65 14 C-64.41992188 14.12117187 -63.83984375 14.24234375 -63.2421875 14.3671875 C-62.46101562 14.53476563 -61.67984375 14.70234375 -60.875 14.875 C-60.10929688 15.03742188 -59.34359375 15.19984375 -58.5546875 15.3671875 C-56 16 -56 16 -53.484375 17.05078125 C-48.14345416 18.50576305 -42.88474939 18.32813493 -37.375 18.3125 C-36.26253906 18.32861328 -35.15007812 18.34472656 -34.00390625 18.36132812 C-22.9335524 18.36777187 -13.7498992 16.14085594 -4 11 C-3.01 11 -2.02 11 -1 11 C-1 10.34 -1 9.68 -1 9 C0.65 8.34 2.3 7.68 4 7 C3.01 4.525 3.01 4.525 2 2 C1.34 2 0.68 2 0 2 C0 1.34 0 0.68 0 0 Z " fill="#A6B7DA" transform="translate(224,198)"/>
<path d="M0 0 C7.24486551 -0.02526739 14.48971974 -0.0428318 21.73461914 -0.05493164 C24.20142033 -0.05997356 26.66821852 -0.06680691 29.13500977 -0.07543945 C32.67204529 -0.08751125 36.20904145 -0.09322956 39.74609375 -0.09765625 C40.85649521 -0.10281754 41.96689667 -0.10797882 43.11094666 -0.11329651 C44.64242088 -0.11340981 44.64242088 -0.11340981 46.20483398 -0.11352539 C47.10862289 -0.115746 48.0124118 -0.11796661 48.94358826 -0.12025452 C51 0 51 0 52 1 C52.09333705 2.59610982 52.11745372 4.19633428 52.11352539 5.79516602 C52.11344986 6.81614883 52.11337433 7.83713165 52.11329651 8.88905334 C52.10813522 9.9994548 52.10297394 11.10985626 52.09765625 12.25390625 C52.0962413 13.38448959 52.09482635 14.51507294 52.09336853 15.67991638 C52.08775019 19.30747065 52.07519458 22.93496424 52.0625 26.5625 C52.05748736 29.01497307 52.05292405 31.4674471 52.04882812 33.91992188 C52.0377748 39.94663545 52.02101884 45.97331339 52 52 C51.01 52.495 51.01 52.495 50 53 C48.70145279 51.92492371 47.41141639 50.83956264 46.125 49.75 C45.40570313 49.14671875 44.68640625 48.5434375 43.9453125 47.921875 C42.02947882 46.02912366 41.03550955 44.46342273 40 42 C39.34 42 38.68 42 38 42 C38 41.34 38 40.68 38 40 C37.01 39.67 36.02 39.34 35 39 C35 38.34 35 37.68 35 37 C34.34 37 33.68 37 33 37 C33 36.34 33 35.68 33 35 C32.34 35 31.68 35 31 35 C31 34.34 31 33.68 31 33 C30.34 33 29.68 33 29 33 C29 32.34 29 31.68 29 31 C28.34 31 27.68 31 27 31 C25.28891311 29.37897032 23.62746694 27.70496537 22 26 C21.236875 25.278125 20.47375 24.55625 19.6875 23.8125 C18 22 18 22 18 20 C17.34 20 16.68 20 16 20 C16 19.34 16 18.68 16 18 C15.01 17.67 14.02 17.34 13 17 C13 16.34 13 15.68 13 15 C12.34 15 11.68 15 11 15 C11 14.34 11 13.68 11 13 C10.34 13 9.68 13 9 13 C9 12.34 9 11.68 9 11 C8.01 10.67 7.02 10.34 6 10 C6 9.34 6 8.68 6 8 C5.38125 7.71125 4.7625 7.4225 4.125 7.125 C2 6 2 6 0 4 C0 2.68 0 1.36 0 0 Z " fill="#D9DDEA" transform="translate(345,26)"/>
<path d="M0 0 C3.80731242 0.92298483 5.67249336 2.5822794 8.09399414 5.50244141 C12.29402179 10.41369707 16.83509501 14.92512862 21.43359375 19.4609375 C23.23385258 21.2485684 25.03397904 23.0363326 26.83398438 24.82421875 C29.65234679 27.61761804 32.47212388 30.40956749 35.29467773 33.19873047 C38.0327915 35.9068278 40.76480702 38.62095739 43.49609375 41.3359375 C44.77558144 42.59523575 44.77558144 42.59523575 46.08091736 43.87997437 C46.85915359 44.65483185 47.63738983 45.42968933 48.43920898 46.22802734 C49.47343239 47.25106461 49.47343239 47.25106461 50.52854919 48.29476929 C52 50 52 50 52 52 C34.84 52 17.68 52 0 52 C-1.1252862 44.12299659 -1.1252862 44.12299659 -1.12939453 40.28979492 C-1.13254669 39.43588669 -1.13569885 38.58197845 -1.13894653 37.70219421 C-1.1369223 36.80402481 -1.13489807 35.90585541 -1.1328125 34.98046875 C-1.13376923 34.0406868 -1.13472595 33.10090485 -1.13571167 32.13264465 C-1.13638897 30.15849744 -1.13456625 28.18434795 -1.13037109 26.21020508 C-1.12498632 23.17980007 -1.1303467 20.14954125 -1.13671875 17.11914062 C-1.13605848 15.19791634 -1.13477837 13.27669214 -1.1328125 11.35546875 C-1.13483673 10.44717819 -1.13686096 9.53888763 -1.13894653 8.60307312 C-1.13579437 7.76492569 -1.13264221 6.92677826 -1.12939453 6.06323242 C-1.12859894 5.3248967 -1.12780334 4.58656097 -1.12698364 3.82585144 C-1 2 -1 2 0 0 Z " fill="#D5D8E5" transform="translate(138,286)"/>
<path d="M0 0 C4.44934653 0.22136052 6.35777536 1.93800267 9.3125 5.125 C11.97552339 7.97015253 14.68658502 10.62481571 17.64453125 13.15625 C22.81948625 17.63100351 27.57541486 22.50493637 32.375 27.375 C34.1513414 29.17675401 35.92987339 30.97635183 37.7109375 32.7734375 C38.48743652 33.56153809 39.26393555 34.34963867 40.06396484 35.16162109 C41.87225957 37.05762341 41.87225957 37.05762341 44 38 C44 38.66 44 39.32 44 40 C44.66 40 45.32 40 46 40 C46.38613383 42.62571005 46.38493778 44.3843879 44.95703125 46.66796875 C43.625 48.3125 43.625 48.3125 41 51 C40.34 51 39.68 51 39 51 C38.63310059 51.85694458 38.63310059 51.85694458 38.25878906 52.73120117 C36.77869478 55.39887305 35.04076818 57.16853761 32.859375 59.30078125 C32.03566406 60.11353516 31.21195312 60.92628906 30.36328125 61.76367188 C29.50089844 62.60478516 28.63851562 63.44589844 27.75 64.3125 C20.89047162 70.98203262 20.89047162 70.98203262 14.515625 78.10546875 C13.68546875 79.06066406 12.8553125 80.01585938 12 81 C11.34 81 10.68 81 10 81 C10 81.66 10 82.32 10 83 C9.34 83 8.68 83 8 83 C7.731875 83.61875 7.46375 84.2375 7.1875 84.875 C6 87 6 87 3 89 C2.505 85.535 2.505 85.535 2 82 C2.721875 82 3.44375 82 4.1875 82 C8.0825894 80.61507932 8.9255237 78.27307723 10.7890625 74.71484375 C11.18867188 74.14894531 11.58828125 73.58304687 12 73 C12.99 73 13.98 73 15 73 C15.2784375 71.6696875 15.2784375 71.6696875 15.5625 70.3125 C17.26514084 66.38902328 18.93744364 65.3462059 22.5390625 63.2734375 C23.02117187 62.85320312 23.50328125 62.43296875 24 62 C24 60.68 24 59.36 24 58 C27.465 57.505 27.465 57.505 31 57 C31 56.01 31 55.02 31 54 C30.34 53.67 29.68 53.34 29 53 C29.495 52.01 29.495 52.01 30 51 C32.64860427 50.40644386 35.29197322 50.25790731 38 50 C38 49.01 38 48.02 38 47 C38.66 47 39.32 47 40 47 C40 45.68 40 44.36 40 43 C40.66 43 41.32 43 42 43 C41.34 42.01 40.68 41.02 40 40 C38.68 40.33 37.36 40.66 36 41 C35 38 35 38 34.75 35.5625 C33.7441323 32.12578537 31.81377822 31.09229662 29 29 C29 28.34 29 27.68 29 27 C27.68 26.67 26.36 26.34 25 26 C25 25.34 25 24.68 25 24 C24.34 24 23.68 24 23 24 C22.62875 22.824375 22.62875 22.824375 22.25 21.625 C20.76274587 18.50176632 20.06415729 18.36184768 17 17 C15.93886742 16.1701399 14.8983206 15.31356227 13.875 14.4375 C11.27761964 12.03993582 11.27761964 12.03993582 9 11 C9 10.34 9 9.68 9 9 C8.01 9 7.02 9 6 9 C5.34 7.02 4.68 5.04 4 3 C-2.18659625 7.77251711 -6.27160491 11.67641317 -9 19 C-9.99 19 -10.98 19 -12 19 C-14.69427859 21.35749377 -16.72021908 23.51038339 -18.5 26.625 C-20 29 -20 29 -22.25 30.3125 C-25.69511129 32.42654556 -27.86617855 35.08456293 -30.44921875 38.16015625 C-32 40 -32 40 -34 42 C-33.34 42.66 -32.68 43.32 -32 44 C-32.66 44.99 -33.32 45.98 -34 47 C-34.99 46.34 -35.98 45.68 -37 45 C-38.32 45.99 -39.64 46.98 -41 48 C-41.99 47.34 -42.98 46.68 -44 46 C-42.625 44 -42.625 44 -41 42 C-40.34 42 -39.68 42 -39 42 C-39 41.34 -39 40.68 -39 40 C-38.34 40 -37.68 40 -37 40 C-37 39.34 -37 38.68 -37 38 C-36.34 38 -35.68 38 -35 38 C-34.731875 37.401875 -34.46375 36.80375 -34.1875 36.1875 C-33.00082594 34.00152146 -31.90400887 32.58667406 -30 31 C-29.34 31 -28.68 31 -28 31 C-27.77441406 30.44570313 -27.54882812 29.89140625 -27.31640625 29.3203125 C-25.61133714 26.31493845 -23.42200049 24.27012997 -20.9375 21.875 C-17.53546517 18.75894235 -17.53546517 18.75894235 -15 15 C-14.34 15 -13.68 15 -13 15 C-12.773125 14.443125 -12.54625 13.88625 -12.3125 13.3125 C-10.62449964 10.33840412 -8.53323483 8.27991135 -6 6 C-5.34 6 -4.68 6 -4 6 C-3.566875 5.071875 -3.566875 5.071875 -3.125 4.125 C-2 2 -2 2 0 0 Z " fill="#08246D" transform="translate(232,7)"/>
<path d="M0 0 C0.495 0.99 0.495 0.99 1 2 C0.67 2.99 0.34 3.98 0 5 C-0.99 5 -1.98 5 -3 5 C-3.185625 6.1446875 -3.185625 6.1446875 -3.375 7.3125 C-4 10 -4 10 -6 13 C-6.63292383 15.11280345 -6.63292383 15.11280345 -7 17 C-7 16.34 -7 15.68 -7 15 C-7.99 15 -8.98 15 -10 15 C-10 15.66 -10 16.32 -10 17 C-10.66 17 -11.32 17 -12 17 C-12.33 19.64 -12.66 22.28 -13 25 C-13.5775 24.7525 -14.155 24.505 -14.75 24.25 C-17.15387031 23.72800703 -17.15387031 23.72800703 -19.25 25.625 C-21.27461204 28.37268777 -21.37010337 29.6690697 -21 33 C-21.99 33.495 -21.99 33.495 -23 34 C-23 33.01 -23 32.02 -23 31 C-26.99353689 33.05073516 -29.21127442 34.82630698 -31 39 C-31.16216515 42.08113792 -30.41908331 43.5088051 -28.43359375 45.8359375 C-25.05179731 49.36094295 -25.05179731 49.36094295 -21 52 C-21 52.66 -21 53.32 -21 54 C-20.34 54 -19.68 54 -19 54 C-19 54.66 -19 55.32 -19 56 C-18.34 56 -17.68 56 -17 56 C-14.375 58.375 -14.375 58.375 -12 61 C-12 61.66 -12 62.32 -12 63 C-11.10087891 63.38865234 -11.10087891 63.38865234 -10.18359375 63.78515625 C-7.83205698 65.0934352 -6.70084658 66.32716438 -5.0625 68.4375 C-2.62987359 71.40322086 -0.37772241 73.13336393 3 75 C4.36984198 76.29579647 5.7151049 77.61992749 7 79 C10.12474627 77.36526484 10.12474627 77.36526484 10.6875 74.875 C10.790625 74.25625 10.89375 73.6375 11 73 C13.475 72.505 13.475 72.505 16 72 C16 71.01 16 70.02 16 69 C17.875 66.8125 17.875 66.8125 20 65 C20.66 65 21.32 65 22 65 C22 64.34 22 63.68 22 63 C23.98 62.505 23.98 62.505 26 62 C26.66 59.36 27.32 56.72 28 54 C29.485 54.495 29.485 54.495 31 55 C31 54.34 31 53.68 31 53 C31.66 53 32.32 53 33 53 C32.505 51.02 32.505 51.02 32 49 C33.98 49 35.96 49 38 49 C38 47.35 38 45.7 38 44 C41.50776784 42.39644899 44.14354879 41.77963136 48 42 C42.99100226 48.00923442 37.59058141 53.4765562 32.00976562 58.95117188 C28.03050114 62.88465384 24.25433583 66.91693084 20.60083008 71.15454102 C18.40926581 73.68100652 16.1423398 76.09978349 13.8125 78.5 C12.99394531 79.3559375 12.17539062 80.211875 11.33203125 81.09375 C9 83 9 83 5 83 C5 82.34 5 81.68 5 81 C4.443125 80.773125 3.88625 80.54625 3.3125 80.3125 C0.33840412 78.62449964 -1.72008865 76.53323483 -4 74 C-4 73.34 -4 72.68 -4 72 C-4.87205078 71.62101562 -4.87205078 71.62101562 -5.76171875 71.234375 C-8.26071618 69.85621935 -9.84834704 68.31416075 -11.8125 66.25 C-14.88669204 63.09009628 -18.05349416 60.18579929 -21.42578125 57.3515625 C-23.74832645 55.35751625 -25.86144452 53.18947347 -28 51 C-28.7734375 50.29488281 -29.546875 49.58976562 -30.34375 48.86328125 C-31.1790625 48.08339844 -32.014375 47.30351562 -32.875 46.5 C-33.67679687 45.7678125 -34.47859375 45.035625 -35.3046875 44.28125 C-37 42 -37 42 -37.1640625 39.63671875 C-35.42891701 35.70643953 -32.60350361 33.22162281 -29.5 30.3125 C-28.30010274 29.16482757 -27.10209224 28.01517829 -25.90625 26.86328125 C-25.37322266 26.36094971 -24.84019531 25.85861816 -24.29101562 25.34106445 C-22.88028234 24.00901027 -22.88028234 24.00901027 -22 22 C-21.34 22 -20.68 22 -20 22 C-19.75523926 21.42926758 -19.51047852 20.85853516 -19.25830078 20.27050781 C-17.7798053 17.60267546 -16.03873452 15.81283685 -13.8671875 13.671875 C-12.65869141 12.47304688 -12.65869141 12.47304688 -11.42578125 11.25 C-10.16314453 10.0125 -10.16314453 10.0125 -8.875 8.75 C-8.02550781 7.90953125 -7.17601562 7.0690625 -6.30078125 6.203125 C-4.20495077 4.13084317 -2.10459287 2.06337607 0 0 Z " fill="#05246B" transform="translate(293,279)"/>
<path d="M0 0 C5.22368125 4.35645531 10.05233196 8.95760225 14.8125 13.8125 C16.12918543 15.15462862 17.4480881 16.49458677 18.76953125 17.83203125 C19.34292236 18.41702393 19.91631348 19.0020166 20.50708008 19.60473633 C21.96766261 21.10215975 21.96766261 21.10215975 24 22 C24 22.66 24 23.32 24 24 C24.66 24 25.32 24 26 24 C26 24.66 26 25.32 26 26 C26.66 26 27.32 26 28 26 C28 26.66 28 27.32 28 28 C29.485 28.495 29.485 28.495 31 29 C31 29.66 31 30.32 31 31 C31.79664063 31.309375 31.79664063 31.309375 32.609375 31.625 C36.00773436 33.57961192 38.51055928 36.22123717 41.25 39 C41.80429687 39.5465625 42.35859375 40.093125 42.9296875 40.65625 C47 44.7466133 47 44.7466133 47 47 C46.36964844 46.74347656 45.73929687 46.48695313 45.08984375 46.22265625 C40.9323457 44.57752744 36.75113549 43.00138623 32.5625 41.4375 C31.72912109 41.12103516 30.89574219 40.80457031 30.03710938 40.47851562 C15.07200204 34.90652705 -2.23612763 35.26569528 -16.91503906 41.86035156 C-19.82550016 43.30269054 -22.6221281 44.86892575 -25.42578125 46.51171875 C-28 48 -28 48 -31 49 C-30.24203125 49.81404297 -30.24203125 49.81404297 -29.46875 50.64453125 C-28.8190625 51.35996094 -28.169375 52.07539063 -27.5 52.8125 C-26.8503125 53.52019531 -26.200625 54.22789062 -25.53125 54.95703125 C-24 57 -24 57 -24 60 C-24.66386719 59.39671875 -25.32773437 58.7934375 -26.01171875 58.171875 C-27.33623047 56.97304687 -27.33623047 56.97304687 -28.6875 55.75 C-29.55761719 54.96109375 -30.42773438 54.1721875 -31.32421875 53.359375 C-33.10741404 51.7870393 -34.94552187 50.27488254 -36.83203125 48.828125 C-37.54746094 48.22484375 -38.26289063 47.6215625 -39 47 C-39 46.34 -39 45.68 -39 45 C-39.66 45 -40.32 45 -41 45 C-41 44.34 -41 43.68 -41 43 C-40.34 43 -39.68 43 -39 43 C-38.67 42.34 -38.34 41.68 -38 41 C-37.01 41.66 -36.02 42.32 -35 43 C-35 43.66 -35 44.32 -35 45 C-32.36 45 -29.72 45 -27 45 C-27 44.34 -27 43.68 -27 43 C-26.34 43 -25.68 43 -25 43 C-25 42.34 -25 41.68 -25 41 C-23.98679687 40.71125 -22.97359375 40.4225 -21.9296875 40.125 C-19.47434389 39.42382596 -17.02177426 38.71477701 -14.5703125 38 C5.20514361 32.26018507 5.20514361 32.26018507 10.125 33.5625 C10.74375 33.706875 11.3625 33.85125 12 34 C12.33 33.67 12.66 33.34 13 33 C14.66605828 32.9549714 16.33378384 32.96125079 18 33 C19.32 33 20.64 33 22 33 C22 33.66 22 34.32 22 35 C22.99 34.01 23.98 33.02 25 32 C23.13478767 26.89520836 21.70401937 24.05761259 17 21 C16.01 20.67 15.02 20.34 14 20 C14 19.34 14 18.68 14 18 C13.01 18.33 12.02 18.66 11 19 C11 18.34 11 17.68 11 17 C10.360625 16.814375 9.72125 16.62875 9.0625 16.4375 C7 15 7 15 6.25 11.375 C6.1675 10.26125 6.085 9.1475 6 8 C5.195625 7.79375 4.39125 7.5875 3.5625 7.375 C2.716875 6.92125 1.87125 6.4675 1 6 C0.1875 2.875 0.1875 2.875 0 0 Z " fill="#244B93" transform="translate(337,115)"/>
<path d="M0 0 C2.97 0.99 5.94 1.98 9 3 C9 3.66 9 4.32 9 5 C9.58007812 5.12117187 10.16015625 5.24234375 10.7578125 5.3671875 C11.92957031 5.61855469 11.92957031 5.61855469 13.125 5.875 C13.89070312 6.03742188 14.65640625 6.19984375 15.4453125 6.3671875 C18 7 18 7 20.59375 8 C25.46434164 9.42989846 30.32863922 9.72780257 35.375 10.125 C36.90833984 10.25455078 36.90833984 10.25455078 38.47265625 10.38671875 C40.98130112 10.59772626 43.49030455 10.80194994 46 11 C46 11.33 46 11.66 46 12 C45.20335937 12.06058594 44.40671875 12.12117187 43.5859375 12.18359375 C41.40910941 12.35572736 39.23329126 12.5410472 37.05859375 12.73828125 C34.85585065 12.92676629 32.64693291 13.04747604 30.4375 13.125 C27.92938789 13.74245859 27.92938789 13.74245859 26.98046875 15.62109375 C25.99190404 17.77808836 25.99190404 17.77808836 25 21 C25.66 21.33 26.32 21.66 27 22 C27 22.66 27 23.32 27 24 C29.31 24.66 31.62 25.32 34 26 C33.505 27.485 33.505 27.485 33 29 C35.38573379 30.89213369 37.07175348 32.02391783 40 33 C40.495 35.475 40.495 35.475 41 38 C41.66 38 42.32 38 43 38 C43.45375 38.474375 43.9075 38.94875 44.375 39.4375 C46.22977487 41.22093737 47.50135592 41.5691993 50 42 C50.495 44.97 50.495 44.97 51 48 C51.66 48 52.32 48 53 48 C53.495 50.475 53.495 50.475 54 53 C49.04688851 48.80645071 44.23058119 44.5049839 39.5 40.0625 C38.81510498 39.42078857 38.13020996 38.77907715 37.42456055 38.11791992 C31.81888111 32.83583027 26.35312602 27.42362108 20.9609375 21.92407227 C18.41062743 19.33648734 15.93691929 16.95039447 13.07421875 14.69921875 C12.04748047 13.85810547 12.04748047 13.85810547 11 13 C11 12.34 11 11.68 11 11 C10.34 11 9.68 11 9 11 C9 10.34 9 9.68 9 9 C8.34 9 7.68 9 7 9 C7 8.34 7 7.68 7 7 C6.360625 6.731875 5.72125 6.46375 5.0625 6.1875 C3 5 3 5 2 2 C1.34 2 0.68 2 0 2 C0 1.34 0 0.68 0 0 Z " fill="#3A5FAA" transform="translate(150,207)"/>
<path d="M0 0 C3.42280517 1.46582015 5.56480483 3.38062255 8.125 6.0625 C10.77905 8.91571933 10.77905 8.91571933 14 11 C14 11.66 14 12.32 14 13 C14.59296875 13.25523437 15.1859375 13.51046875 15.796875 13.7734375 C18.21224538 15.11816498 19.51211706 16.49214367 21.25 18.625 C22.03117187 19.57246094 22.03117187 19.57246094 22.828125 20.5390625 C23.40820312 21.26222656 23.40820312 21.26222656 24 22 C22.35 22.33 20.7 22.66 19 23 C17.948125 21.6078125 17.948125 21.6078125 16.875 20.1875 C14.84157198 17.70671781 13.74708065 16.87354033 10.75 15.375 C8 14 8 14 7.125 11.8125 C7.08375 11.214375 7.0425 10.61625 7 10 C5.02 10.66 3.04 11.32 1 12 C0.67 13.65 0.34 15.3 0 17 C-0.66 17 -1.32 17 -2 17 C-2 16.01 -2 15.02 -2 14 C-2.56847656 14.26554688 -3.13695312 14.53109375 -3.72265625 14.8046875 C-15.08029197 20 -15.08029197 20 -20 20 C-20.33 20.99 -20.66 21.98 -21 23 C-23.64 22.67 -26.28 22.34 -29 22 C-29 21.67 -29 21.34 -29 21 C-33.29 20.67 -37.58 20.34 -42 20 C-42 19.67 -42 19.34 -42 19 C-40.83984375 18.96261719 -39.6796875 18.92523438 -38.484375 18.88671875 C-25.92368072 18.39490869 -15.24759575 16.93055049 -4 11 C-3.01 11 -2.02 11 -1 11 C-1 10.34 -1 9.68 -1 9 C0.65 8.34 2.3 7.68 4 7 C3.34 5.35 2.68 3.7 2 2 C1.34 2 0.68 2 0 2 C0 1.34 0 0.68 0 0 Z " fill="#7786A8" transform="translate(224,198)"/>
<path d="M0 0 C0.495 0.99 0.495 0.99 1 2 C0.67 2.99 0.34 3.98 0 5 C-0.99 5 -1.98 5 -3 5 C-3.185625 6.1446875 -3.185625 6.1446875 -3.375 7.3125 C-4 10 -4 10 -6 13 C-6.63292383 15.11280345 -6.63292383 15.11280345 -7 17 C-7 16.34 -7 15.68 -7 15 C-7.99 15 -8.98 15 -10 15 C-10 15.66 -10 16.32 -10 17 C-10.66 17 -11.32 17 -12 17 C-12.33 19.64 -12.66 22.28 -13 25 C-13.5775 24.7525 -14.155 24.505 -14.75 24.25 C-17.15387031 23.72800703 -17.15387031 23.72800703 -19.25 25.625 C-21.27461204 28.37268777 -21.37010337 29.6690697 -21 33 C-21.99 33.495 -21.99 33.495 -23 34 C-23 33.01 -23 32.02 -23 31 C-27.01628463 33.06241643 -29.125395 34.85613631 -31 39 C-31.25196129 41.70953551 -31.25196129 41.70953551 -31 44 C-32.9375 43.1875 -32.9375 43.1875 -35 42 C-36 39 -36 39 -34.8828125 36.63671875 C-32.78413749 33.69770292 -30.47468601 31.31744526 -27.875 28.8125 C-24.50698232 25.72499837 -24.50698232 25.72499837 -22 22 C-21.34 22 -20.68 22 -20 22 C-19.75523926 21.42926758 -19.51047852 20.85853516 -19.25830078 20.27050781 C-17.7798053 17.60267546 -16.03873452 15.81283685 -13.8671875 13.671875 C-12.65869141 12.47304688 -12.65869141 12.47304688 -11.42578125 11.25 C-10.16314453 10.0125 -10.16314453 10.0125 -8.875 8.75 C-8.02550781 7.90953125 -7.17601562 7.0690625 -6.30078125 6.203125 C-4.20495077 4.13084317 -2.10459287 2.06337607 0 0 Z " fill="#073698" transform="translate(293,279)"/>
<path d="M0 0 C7.24486551 -0.02526739 14.48971974 -0.0428318 21.73461914 -0.05493164 C24.20142033 -0.05997356 26.66821852 -0.06680691 29.13500977 -0.07543945 C32.67204529 -0.08751125 36.20904145 -0.09322956 39.74609375 -0.09765625 C40.85649521 -0.10281754 41.96689667 -0.10797882 43.11094666 -0.11329651 C44.64242088 -0.11340981 44.64242088 -0.11340981 46.20483398 -0.11352539 C47.10862289 -0.115746 48.0124118 -0.11796661 48.94358826 -0.12025452 C51 0 51 0 52 1 C52.09333705 2.59610982 52.11745372 4.19633428 52.11352539 5.79516602 C52.11344986 6.81614883 52.11337433 7.83713165 52.11329651 8.88905334 C52.10813522 9.9994548 52.10297394 11.10985626 52.09765625 12.25390625 C52.0962413 13.38448959 52.09482635 14.51507294 52.09336853 15.67991638 C52.08775019 19.30747065 52.07519458 22.93496424 52.0625 26.5625 C52.05748736 29.01497307 52.05292405 31.4674471 52.04882812 33.91992188 C52.0377748 39.94663545 52.02101884 45.97331339 52 52 C51.67 52 51.34 52 51 52 C51 35.5 51 19 51 2 C36.48 2.33 21.96 2.66 7 3 C7.66 4.65 8.32 6.3 9 8 C8.67 8.66 8.34 9.32 8 10 C8.66 10 9.32 10 10 10 C10.33 10.99 10.66 11.98 11 13 C10.34 13 9.68 13 9 13 C9 12.34 9 11.68 9 11 C8.01 10.67 7.02 10.34 6 10 C6 9.34 6 8.68 6 8 C5.38125 7.71125 4.7625 7.4225 4.125 7.125 C2 6 2 6 0 4 C0 2.68 0 1.36 0 0 Z " fill="#77767C" transform="translate(345,26)"/>
<path d="M0 0 C2.97 0.99 5.94 1.98 9 3 C9 3.66 9 4.32 9 5 C9.66 5.33 10.32 5.66 11 6 C11 6.66 11 7.32 11 8 C13.31 8.66 15.62 9.32 18 10 C17.67 10.99 17.34 11.98 17 13 C19.38573379 14.89213369 21.07175348 16.02391783 24 17 C24.33 18.65 24.66 20.3 25 22 C25.66 22 26.32 22 27 22 C27.45375 22.474375 27.9075 22.94875 28.375 23.4375 C30.22977487 25.22093737 31.50135592 25.5691993 34 26 C34.495 28.97 34.495 28.97 35 32 C35.66 32 36.32 32 37 32 C37.495 34.475 37.495 34.475 38 37 C33.04692388 32.80648066 28.23006429 28.50549995 23.5 24.0625 C22.81873047 23.42296387 22.13746094 22.78342773 21.43554688 22.12451172 C16.38747485 17.36088718 11.41762519 12.52306375 6.5 7.625 C5.84708984 6.97668213 5.19417969 6.32836426 4.52148438 5.66040039 C0 1.12360763 0 1.12360763 0 0 Z " fill="#2E4580" transform="translate(166,223)"/>
<path d="M0 0 C-0.763125 0.721875 -1.52625 1.44375 -2.3125 2.1875 C-5.0264461 4.80138436 -5.0264461 4.80138436 -6.5 7.625 C-8 10 -8 10 -10.25 11.3125 C-13.69511129 13.42654556 -15.86617855 16.08456293 -18.44921875 19.16015625 C-20 21 -20 21 -22 23 C-21.34 23.66 -20.68 24.32 -20 25 C-20.66 25.99 -21.32 26.98 -22 28 C-22.99 27.34 -23.98 26.68 -25 26 C-26.32 26.99 -27.64 27.98 -29 29 C-29.99 28.34 -30.98 27.68 -32 27 C-30.625 25 -30.625 25 -29 23 C-28.34 23 -27.68 23 -27 23 C-27 22.34 -27 21.68 -27 21 C-26.34 21 -25.68 21 -25 21 C-25 20.34 -25 19.68 -25 19 C-24.34 19 -23.68 19 -23 19 C-22.731875 18.401875 -22.46375 17.80375 -22.1875 17.1875 C-21.00082594 15.00152146 -19.90400887 13.58667406 -18 12 C-17.34 12 -16.68 12 -16 12 C-15.73960937 11.41476563 -15.47921875 10.82953125 -15.2109375 10.2265625 C-13.92349225 7.85932446 -12.53435473 6.26767914 -10.625 4.375 C-10.03976563 3.78460937 -9.45453125 3.19421875 -8.8515625 2.5859375 C-5.64514001 -0.16049189 -4.13867317 -1.37955772 0 0 Z " fill="#3D5488" transform="translate(220,26)"/>
<path d="M0 0 C0 0.33 0 0.66 0 1 C-1.00417969 1.20753906 -2.00835937 1.41507813 -3.04296875 1.62890625 C-11.67322825 3.53178253 -18.75767399 6.01861199 -26.42578125 10.51171875 C-29 12 -29 12 -32 13 C-31.4946875 13.54269531 -30.989375 14.08539063 -30.46875 14.64453125 C-29.8190625 15.35996094 -29.169375 16.07539063 -28.5 16.8125 C-27.8503125 17.52019531 -27.200625 18.22789062 -26.53125 18.95703125 C-25 21 -25 21 -25 24 C-25.66386719 23.39671875 -26.32773437 22.7934375 -27.01171875 22.171875 C-27.89472656 21.37265625 -28.77773438 20.5734375 -29.6875 19.75 C-30.55761719 18.96109375 -31.42773438 18.1721875 -32.32421875 17.359375 C-34.10741404 15.7870393 -35.94552187 14.27488254 -37.83203125 12.828125 C-38.54746094 12.22484375 -39.26289063 11.6215625 -40 11 C-40 10.34 -40 9.68 -40 9 C-40.66 9 -41.32 9 -42 9 C-42 8.34 -42 7.68 -42 7 C-41.34 7 -40.68 7 -40 7 C-39.67 6.34 -39.34 5.68 -39 5 C-38.01 5.66 -37.02 6.32 -36 7 C-36 7.66 -36 8.32 -36 9 C-33.36 9 -30.72 9 -28 9 C-28 8.34 -28 7.68 -28 7 C-27.34 7 -26.68 7 -26 7 C-26 6.34 -26 5.68 -26 5 C-24.5459375 4.5978125 -24.5459375 4.5978125 -23.0625 4.1875 C-20.96077523 3.60087401 -18.924615 2.97148722 -16.8828125 2.19921875 C-11.12235548 0.03648488 -6.12773584 -0.34540473 0 0 Z " fill="#8195C6" transform="translate(338,151)"/>
<path d="M0 0 C4.31600805 0.243357 6.35824368 1.83729011 9.3125 4.875 C10.00988281 5.57367188 10.70726562 6.27234375 11.42578125 6.9921875 C13 9 13 9 13 12 C11.68 11.67 10.36 11.34 9 11 C9 10.34 9 9.68 9 9 C8.01 9 7.02 9 6 9 C5.34 7.02 4.68 5.04 4 3 C-2.18659625 7.77251711 -6.27160491 11.67641317 -9 19 C-12 19 -15 19 -18 19 C-16.625 17 -16.625 17 -15 15 C-14.34 15 -13.68 15 -13 15 C-12.773125 14.443125 -12.54625 13.88625 -12.3125 13.3125 C-10.62449964 10.33840412 -8.53323483 8.27991135 -6 6 C-5.34 6 -4.68 6 -4 6 C-3.566875 5.071875 -3.566875 5.071875 -3.125 4.125 C-2 2 -2 2 0 0 Z " fill="#062263" transform="translate(232,7)"/>
<path d="M0 0 C-4.67466337 5.62303757 -9.67765667 10.79741554 -14.875 15.9375 C-15.65875 16.71673828 -16.4425 17.49597656 -17.25 18.29882812 C-19.16438581 20.20154085 -21.08108034 22.10186171 -23 24 C-23.99 23.67 -24.98 23.34 -26 23 C-26 22.34 -26 21.68 -26 21 C-24.68 20.67 -23.36 20.34 -22 20 C-21.34 17.36 -20.68 14.72 -20 12 C-19.01 12.33 -18.02 12.66 -17 13 C-17 12.34 -17 11.68 -17 11 C-16.34 11 -15.68 11 -15 11 C-15.33 9.68 -15.66 8.36 -16 7 C-14.02 7 -12.04 7 -10 7 C-10 5.35 -10 3.7 -10 2 C-6.49223216 0.39644899 -3.85645121 -0.22036864 0 0 Z " fill="#27427E" transform="translate(341,321)"/>
<path d="M0 0 C0 0.99 0 1.98 0 3 C0.061875 3.845625 0.12375 4.69125 0.1875 5.5625 C0.0946875 6.7690625 0.0946875 6.7690625 0 8 C-3 10 -3 10 -6 10 C-6.20625 11.258125 -6.4125 12.51625 -6.625 13.8125 C-7.1640625 16.046875 -7.1640625 16.046875 -8 18 C-9.98320018 19.03291676 -11.98347806 20.0337499 -14 21 C-15.44967902 24.5693717 -15.44967902 24.5693717 -16 28 C-17.65 27.67 -19.3 27.34 -21 27 C-21 26.01 -21 25.02 -21 24 C-20.01 24 -19.02 24 -18 24 C-17.9175 23.113125 -17.835 22.22625 -17.75 21.3125 C-16.90015652 17.55902463 -15.65972191 15.74031954 -13 13 C-12.34 13 -11.68 13 -11 13 C-10.76539063 12.43796875 -10.53078125 11.8759375 -10.2890625 11.296875 C-8.69337 8.45364109 -6.71075457 6.51901873 -4.375 4.25 C-3.55773437 3.45078125 -2.74046875 2.6515625 -1.8984375 1.828125 C-0.95871094 0.92320312 -0.95871094 0.92320312 0 0 Z " fill="#9196A8" transform="translate(311,260)"/>
<path d="M0 0 C-1.34374796 6.06552899 -4.67776952 9.21767389 -9 13.375 C-9.64195312 14.01566406 -10.28390625 14.65632813 -10.9453125 15.31640625 C-15.71878332 20 -15.71878332 20 -18 20 C-18 19.01 -18 18.02 -18 17 C-18.99 17.66 -19.98 18.32 -21 19 C-21.33 17.68 -21.66 16.36 -22 15 C-21.36191406 14.76925781 -20.72382813 14.53851563 -20.06640625 14.30078125 C-17.59704654 13.32613538 -15.2872799 12.35058432 -13 11 C-12.18068911 8.48823926 -12.18068911 8.48823926 -12 6 C-9.625 4.375 -9.625 4.375 -7 3 C-6.484375 2.443125 -5.96875 1.88625 -5.4375 1.3125 C-4 0 -4 0 0 0 Z " fill="#D8D6D7" transform="translate(255,260)"/>
<path d="M0 0 C0 0.66 0 1.32 0 2 C-0.66 2 -1.32 2 -2 2 C-2.0928125 3.051875 -2.0928125 3.051875 -2.1875 4.125 C-3.24851975 7.87937757 -5.38756241 10.22019176 -8 13 C-8.886875 13.94875 -9.77375 14.8975 -10.6875 15.875 C-13 18 -13 18 -15 18 C-15 18.66 -15 19.32 -15 20 C-15.66 20 -16.32 20 -17 20 C-17.268125 20.61875 -17.53625 21.2375 -17.8125 21.875 C-19 24 -19 24 -22 26 C-22.33 23.69 -22.66 21.38 -23 19 C-22.278125 19 -21.55625 19 -20.8125 19 C-16.9174106 17.61507932 -16.0744763 15.27307723 -14.2109375 11.71484375 C-13.81132812 11.14894531 -13.41171875 10.58304688 -13 10 C-12.01 10 -11.02 10 -10 10 C-9.79375 9.0925 -9.5875 8.185 -9.375 7.25 C-7.66556381 3.20951445 -4.68637438 0 0 0 Z " fill="#63719A" transform="translate(257,70)"/>
<path d="M0 0 C0.66 0 1.32 0 2 0 C2 0.99 2 1.98 2 3 C2.99 3 3.98 3 5 3 C4.9175 3.9075 4.835 4.815 4.75 5.75 C5.05464439 9.71037702 6.14911051 10.4184859 9 13 C8.01644531 12.72285156 7.03289062 12.44570312 6.01953125 12.16015625 C-5.66147644 9.05206437 -16.94195784 8.23573885 -29 8 C-29 7.67 -29 7.34 -29 7 C-27.56342755 6.66269158 -26.12569907 6.33030409 -24.6875 6 C-23.88699219 5.814375 -23.08648437 5.62875 -22.26171875 5.4375 C-19.60126906 4.9228707 -17.50244299 4.86700039 -14.875 5.5625 C-13.946875 5.7790625 -13.946875 5.7790625 -13 6 C-12.67 5.67 -12.34 5.34 -12 5 C-10.33394172 4.9549714 -8.66621616 4.96125079 -7 5 C-5.68 5 -4.36 5 -3 5 C-3 5.66 -3 6.32 -3 7 C-1.4166747 5.7511573 -1.4166747 5.7511573 0 4 C0 2.68 0 1.36 0 0 Z " fill="#4161A7" transform="translate(362,143)"/>
<path d="M0 0 C0.33 0.66 0.66 1.32 1 2 C0.67 2.99 0.34 3.98 0 5 C-0.99 5 -1.98 5 -3 5 C-3.12375 5.763125 -3.2475 6.52625 -3.375 7.3125 C-4 10 -4 10 -6 13 C-6.63292383 15.11280345 -6.63292383 15.11280345 -7 17 C-7 16.34 -7 15.68 -7 15 C-7.99 15 -8.98 15 -10 15 C-10 15.66 -10 16.32 -10 17 C-10.66 17 -11.32 17 -12 17 C-12.33 19.64 -12.66 22.28 -13 25 C-14.9375 24.1875 -14.9375 24.1875 -17 23 C-18 20 -18 20 -17.04296875 17.80078125 C-14.17417423 13.86784497 -10.79063304 10.58119657 -7.3125 7.1875 C-6.61060547 6.49462891 -5.90871094 5.80175781 -5.18554688 5.08789062 C-3.46148959 3.38728991 -1.73292722 1.69155339 0 0 Z " fill="#3C5C9D" transform="translate(293,279)"/>
<path d="M0 0 C-0.33 1.98 -0.66 3.96 -1 6 C-1.66 6 -2.32 6 -3 6 C-3 5.01 -3 4.02 -3 3 C-3.56847656 3.26554688 -4.13695312 3.53109375 -4.72265625 3.8046875 C-16.08029197 9 -16.08029197 9 -21 9 C-21.33 9.99 -21.66 10.98 -22 12 C-24.64 11.67 -27.28 11.34 -30 11 C-30 10.67 -30 10.34 -30 10 C-34.29 9.67 -38.58 9.34 -43 9 C-43 8.67 -43 8.34 -43 8 C-41.83984375 7.96261719 -40.6796875 7.92523438 -39.484375 7.88671875 C-28.70553088 7.46467647 -18.31025716 6.91243974 -8.5625 1.8125 C-5.23045546 0.11724927 -3.63577361 -0.4544717 0 0 Z " fill="#728ABC" transform="translate(225,209)"/>
<path d="M0 0 C5.25174926 4.38442526 10.13222473 9.00842093 14.9375 13.875 C15.62134766 14.56335938 16.30519531 15.25171875 17.00976562 15.9609375 C18.67551464 17.63833511 20.3388622 19.31803791 22 21 C21.67 21.99 21.34 22.98 21 24 C20.401875 23.525625 19.80375 23.05125 19.1875 22.5625 C16.99617076 20.83534256 16.99617076 20.83534256 14 20 C14 19.34 14 18.68 14 18 C13.01 18.33 12.02 18.66 11 19 C11 18.34 11 17.68 11 17 C10.360625 16.814375 9.72125 16.62875 9.0625 16.4375 C7 15 7 15 6.25 11.375 C6.12625 9.704375 6.12625 9.704375 6 8 C5.195625 7.79375 4.39125 7.5875 3.5625 7.375 C2.2940625 6.694375 2.2940625 6.694375 1 6 C0.1875 2.875 0.1875 2.875 0 0 Z " fill="#637DB3" transform="translate(337,115)"/>
<path d="M0 0 C0 0.66 0 1.32 0 2 C-0.66 2 -1.32 2 -2 2 C-2.26731934 2.59329102 -2.53463867 3.18658203 -2.81005859 3.79785156 C-4.01584993 6.02933245 -5.2358095 7.4664799 -7.0390625 9.234375 C-7.90917969 10.09482422 -7.90917969 10.09482422 -8.796875 10.97265625 C-9.40015625 11.55917969 -10.0034375 12.14570312 -10.625 12.75 C-11.23601562 13.35199219 -11.84703125 13.95398438 -12.4765625 14.57421875 C-13.97988624 16.05405305 -15.48934856 17.52764676 -17 19 C-17.33 18.01 -17.66 17.02 -18 16 C-17.34 16 -16.68 16 -16 16 C-16.33 13.69 -16.66 11.38 -17 9 C-13.535 8.505 -13.535 8.505 -10 8 C-10 7.01 -10 6.02 -10 5 C-10.66 4.67 -11.32 4.34 -12 4 C-11.67 3.34 -11.34 2.68 -11 2 C-9.01014051 1.61067967 -7.00800456 1.28112064 -5 1 C-2 0 -2 0 0 0 Z " fill="#0B2162" transform="translate(273,56)"/>
<path d="M0 0 C0.53190541 1.43344 1.05015258 2.87195367 1.5625 4.3125 C1.85253906 5.11300781 2.14257812 5.91351563 2.44140625 6.73828125 C3 9 3 9 2 12 C1.38125 11.814375 0.7625 11.62875 0.125 11.4375 C-2.04160178 10.76313824 -2.04160178 10.76313824 -4 12 C-4.33 10.35 -4.66 8.7 -5 7 C-5.99 6.67 -6.98 6.34 -8 6 C-7.1875 3.5625 -7.1875 3.5625 -6 1 C-3 0 -3 0 0 0 Z " fill="#F1F3F8" transform="translate(304,84)"/>
<path d="M0 0 C2.97 0.99 5.94 1.98 9 3 C9 3.66 9 4.32 9 5 C10.32 5.33 11.64 5.66 13 6 C13 6.66 13 7.32 13 8 C13.99 8.33 14.98 8.66 16 9 C15.34 9 14.68 9 14 9 C14.66 11.31 15.32 13.62 16 16 C14 16 14 16 12.375 14.625 C11 13 11 13 11 11 C10.34 11 9.68 11 9 11 C9 10.34 9 9.68 9 9 C8.34 9 7.68 9 7 9 C7 8.34 7 7.68 7 7 C6.360625 6.731875 5.72125 6.46375 5.0625 6.1875 C3 5 3 5 2 2 C1.34 2 0.68 2 0 2 C0 1.34 0 0.68 0 0 Z " fill="#1D3F8C" transform="translate(150,207)"/>
<path d="M0 0 C1.17539996 0.92652701 2.34010577 1.86663387 3.5 2.8125 C4.47453125 3.59560547 4.47453125 3.59560547 5.46875 4.39453125 C7 6 7 6 7 9 C-9.17 9 -25.34 9 -42 9 C-41.67 8.01 -41.34 7.02 -41 6 C-41 6.66 -41 7.32 -41 8 C-26.48 7.67 -11.96 7.34 3 7 C2.01 5.35 1.02 3.7 0 2 C0 1.34 0 0.68 0 0 Z " fill="#D7D5DF" transform="translate(181,328)"/>
<path d="M0 0 C2 2 2 2 2 5 C2.66 5 3.32 5 4 5 C4.45375 5.474375 4.9075 5.94875 5.375 6.4375 C7.22977487 8.22093737 8.50135592 8.5691993 11 9 C11.33 10.98 11.66 12.96 12 15 C12.66 15 13.32 15 14 15 C14.33 16.65 14.66 18.3 15 20 C13.35846412 18.59785477 11.71845882 17.19388069 10.0859375 15.78125 C8.67106696 14.57304595 7.2378972 13.38600905 5.7890625 12.21875 C4.71785156 11.33703125 4.71785156 11.33703125 3.625 10.4375 C2.62339844 9.63119141 2.62339844 9.63119141 1.6015625 8.80859375 C-0.38731065 6.56262236 -0.74081031 4.96148222 -1 2 C-0.67 1.34 -0.34 0.68 0 0 Z " fill="#7583A7" transform="translate(189,240)"/>
<path d="M0 0 C-1.65 1.98 -3.3 3.96 -5 6 C-4.34 6.66 -3.68 7.32 -3 8 C-3.99 9.485 -3.99 9.485 -5 11 C-5.99 10.34 -6.98 9.68 -8 9 C-9.32 9.99 -10.64 10.98 -12 12 C-12.99 11.34 -13.98 10.68 -15 10 C-13.625 8 -13.625 8 -12 6 C-11.34 6 -10.68 6 -10 6 C-10 5.34 -10 4.68 -10 4 C-9.34 4 -8.68 4 -8 4 C-8 3.34 -8 2.68 -8 2 C-3.61016949 -1.20338983 -3.61016949 -1.20338983 0 0 Z " fill="#8794B8" transform="translate(203,43)"/>
<path d="M0 0 C1.65 0 3.3 0 5 0 C3.01929545 2.35043607 1.01380923 4.67790392 -1 7 C-1.680625 7.804375 -2.36125 8.60875 -3.0625 9.4375 C-5 11 -5 11 -7.75 11.25 C-8.4925 11.1675 -9.235 11.085 -10 11 C-9.67 9.02 -9.34 7.04 -9 5 C-8.071875 4.855625 -7.14375 4.71125 -6.1875 4.5625 C-2.99274889 4.07899889 -2.99274889 4.07899889 0 3 C0 2.01 0 1.02 0 0 Z " fill="#91A2CC" transform="translate(346,310)"/>
<path d="M0 0 C1.98 0.495 1.98 0.495 4 1 C4 1.66 4 2.32 4 3 C4.66 3 5.32 3 6 3 C6 3.66 6 4.32 6 5 C6.99 5.33 7.98 5.66 9 6 C9 6.66 9 7.32 9 8 C9.66 8 10.32 8 11 8 C11.12375 8.804375 11.2475 9.60875 11.375 10.4375 C11.58125 11.283125 11.7875 12.12875 12 13 C12.66 13.33 13.32 13.66 14 14 C11.36 13.67 8.72 13.34 6 13 C5.49384702 11.73160474 4.99530901 10.46016898 4.5 9.1875 C4.2215625 8.47980469 3.943125 7.77210937 3.65625 7.04296875 C3 5 3 5 3 2 C1.68 2.33 0.36 2.66 -1 3 C-0.67 2.01 -0.34 1.02 0 0 Z " fill="#D3D5DC" transform="translate(301,82)"/>
<path d="M0 0 C0 0.33 0 0.66 0 1 C-1.03898437 1.23074219 -2.07796875 1.46148437 -3.1484375 1.69921875 C-10.63742739 3.42813842 -17.4214846 5.24395405 -24.1796875 9.046875 C-26 10 -26 10 -28 10 C-28 9.01 -28 8.02 -28 7 C-27.34 7 -26.68 7 -26 7 C-26 6.34 -26 5.68 -26 5 C-24.5459375 4.5978125 -24.5459375 4.5978125 -23.0625 4.1875 C-20.96077523 3.60087401 -18.924615 2.97148722 -16.8828125 2.19921875 C-11.12235548 0.03648488 -6.12773584 -0.34540473 0 0 Z " fill="#768CBB" transform="translate(338,151)"/>
<path d="M0 0 C-1.15628906 0.58007812 -1.15628906 0.58007812 -2.3359375 1.171875 C-3.33882813 1.69265625 -4.34171875 2.2134375 -5.375 2.75 C-6.37273437 3.26046875 -7.37046875 3.7709375 -8.3984375 4.296875 C-11.06579125 6.04307055 -11.93652905 7.05303231 -13 10 C-12.01 11.485 -12.01 11.485 -11 13 C-14.24271506 12.4409112 -15.93057424 11.5867822 -18 9 C-18 8.34 -18 7.68 -18 7 C-15.75820623 5.63034792 -13.50827662 4.27947192 -11.25 2.9375 C-10.61578125 2.54755859 -9.9815625 2.15761719 -9.328125 1.75585938 C-5.74435102 -0.35334093 -3.96345928 -1.34013518 0 0 Z " fill="#E6EFF7" transform="translate(324,157)"/>
<path d="M0 0 C0 0.66 0 1.32 0 2 C-0.66 2 -1.32 2 -2 2 C-2.061875 2.70125 -2.12375 3.4025 -2.1875 4.125 C-3.31353988 8.10944879 -5.13893266 10.00269135 -8 13 C-8.99 13.33 -9.98 13.66 -11 14 C-10.49080812 9.62094986 -9.67804488 6.53884503 -7 3 C-2.75862069 0 -2.75862069 0 0 0 Z " fill="#4A6198" transform="translate(257,70)"/>
<path d="M0 0 C4.41510774 0.48713098 6.30446645 1.85053197 9.3125 5.0625 C10.00988281 5.79597656 10.70726562 6.52945313 11.42578125 7.28515625 C11.94527344 7.85105469 12.46476563 8.41695312 13 9 C11.02 9.99 11.02 9.99 9 11 C7.88625 9.8553125 7.88625 9.8553125 6.75 8.6875 C4.18744911 6.0392196 4.18744911 6.0392196 1.6875 4.375 C1.130625 3.92125 0.57375 3.4675 0 3 C0 2.01 0 1.02 0 0 Z " fill="#848EAA" transform="translate(235,210)"/>
<path d="M0 0 C0 4.05964853 -1.80938095 6.2584992 -3.90625 9.6484375 C-5.13829884 12.29734251 -5.20401295 14.11321669 -5 17 C-6.9375 16.1875 -6.9375 16.1875 -9 15 C-10 12 -10 12 -9 9.75 C-6.35591821 6.11438754 -3.25152404 3.09117491 0 0 Z " fill="#052A7B" transform="translate(267,306)"/>
<path d="M0 0 C0.66 0 1.32 0 2 0 C2 0.66 2 1.32 2 2 C2.66 2 3.32 2 4 2 C4 2.66 4 3.32 4 4 C4.66 4 5.32 4 6 4 C6 4.66 6 5.32 6 6 C6.99 6.33 7.98 6.66 9 7 C9 7.66 9 8.32 9 9 C9.598125 9.2475 10.19625 9.495 10.8125 9.75 C13.28647521 11.16370012 14.43370255 12.65055383 16 15 C10.33846154 13.52307692 10.33846154 13.52307692 8.625 10.875 C8.41875 10.25625 8.2125 9.6375 8 9 C7.01 9 6.02 9 5 9 C5 8.01 5 7.02 5 6 C4.01 6 3.02 6 2 6 C0 3 0 3 0 0 Z " fill="#263871" transform="translate(359,137)"/>
<path d="M0 0 C0.66 1.32 1.32 2.64 2 4 C1.04882866 5.1725131 0.08882991 6.33787015 -0.875 7.5 C-1.40867187 8.1496875 -1.94234375 8.799375 -2.4921875 9.46875 C-2.98976563 9.9740625 -3.48734375 10.479375 -4 11 C-4.66 11 -5.32 11 -6 11 C-6.2253459 7.69492676 -6.34500438 5.60786486 -4.6875 2.6875 C-3 1 -3 1 0 0 Z " fill="#C7C7CB" transform="translate(360,295)"/>
<path d="M0 0 C0.66 0 1.32 0 2 0 C2 0.99 2 1.98 2 3 C2.99 3 3.98 3 5 3 C4.9175 3.9075 4.835 4.815 4.75 5.75 C4.68975201 9.10041408 4.68975201 9.10041408 7 11.375 C7.66 11.91125 8.32 12.4475 9 13 C3.59445178 12.04095112 3.59445178 12.04095112 1 11 C-0.5625 8.5 -0.5625 8.5 -1 6 C-0.67 5.34 -0.34 4.68 0 4 C0 2.68 0 1.36 0 0 Z " fill="#3C60A6" transform="translate(362,143)"/>
<path d="M0 0 C0.99 0.33 1.98 0.66 3 1 C3 2.32 3 3.64 3 5 C2.34 5 1.68 5 1 5 C1 5.66 1 6.32 1 7 C0.34 7 -0.32 7 -1 7 C-1.268125 7.61875 -1.53625 8.2375 -1.8125 8.875 C-3 11 -3 11 -6 13 C-6.33 11.02 -6.66 9.04 -7 7 C-2.375 4 -2.375 4 1 4 C0.67 2.68 0.34 1.36 0 0 Z " fill="#A8AFC0" transform="translate(232,92)"/>
<path d="M0 0 C1.32 0.66 2.64 1.32 4 2 C4 2.99 4 3.98 4 5 C4.825 5.433125 5.65 5.86625 6.5 6.3125 C7.7375 7.1478125 7.7375 7.1478125 9 8 C9.3125 11.1875 9.3125 11.1875 9 14 C7.8944811 13.06409496 6.79064547 12.12620142 5.6875 11.1875 C5.07261719 10.66542969 4.45773438 10.14335937 3.82421875 9.60546875 C3.22222656 9.07566406 2.62023437 8.54585937 2 8 C1.4225 7.4946875 0.845 6.989375 0.25 6.46875 C-0.1625 5.9840625 -0.575 5.499375 -1 5 C-0.6875 2.3125 -0.6875 2.3125 0 0 Z " fill="#465584" transform="translate(180,232)"/>
<path d="M0 0 C-0.95421808 1.14926266 -1.91352045 2.29430541 -2.875 3.4375 C-3.40867187 4.07558594 -3.94234375 4.71367187 -4.4921875 5.37109375 C-6 7 -6 7 -8 8 C-8.66 7.67 -9.32 7.34 -10 7 C-10 5.35 -10 3.7 -10 2 C-6.49223216 0.39644899 -3.85645121 -0.22036864 0 0 Z " fill="#65719B" transform="translate(341,321)"/>
<path d="M0 0 C0.33 0.66 0.66 1.32 1 2 C0.67 2.99 0.34 3.98 0 5 C-0.99 5 -1.98 5 -3 5 C-3.12375 5.763125 -3.2475 6.52625 -3.375 7.3125 C-4 10 -4 10 -6 13 C-6.63292383 15.11280345 -6.63292383 15.11280345 -7 17 C-7 16.34 -7 15.68 -7 15 C-7.66 15 -8.32 15 -9 15 C-9 10.96286738 -8.76144624 8.92564818 -6.15234375 5.75390625 C-4.14993218 3.77268422 -2.11764085 1.85715655 0 0 Z " fill="#586688" transform="translate(293,279)"/>
<path d="M0 0 C1.34567923 2.69135846 0.77224621 4.13876894 0.1875 7.0625 C0.01605469 7.96097656 -0.15539062 8.85945313 -0.33203125 9.78515625 C-0.55246094 10.51605469 -0.77289063 11.24695313 -1 12 C-3.49092811 13.24546405 -4.41080733 12.7767578 -7 12 C-7 11.01 -7 10.02 -7 9 C-6.01 9 -5.02 9 -4 9 C-3.896875 8.071875 -3.79375 7.14375 -3.6875 6.1875 C-2.9929808 2.96745642 -2.52259061 1.97420135 0 0 Z " fill="#788CBD" transform="translate(297,275)"/>
<path d="M0 0 C-0.66 1.65 -1.32 3.3 -2 5 C-2.66 5 -3.32 5 -4 5 C-4 5.66 -4 6.32 -4 7 C-5.98 7 -7.96 7 -10 7 C-9.34 6.34 -8.68 5.68 -8 5 C-7.35232207 2.42938689 -7.35232207 2.42938689 -7 0 C-3.86650268 -1.04449911 -3.01031744 -0.93423645 0 0 Z " fill="#DAD9D8" transform="translate(264,252)"/>
<path d="M0 0 C2 1 2 1 4 4 C4.99 4 5.98 4 7 4 C6.67 5.32 6.34 6.64 6 8 C3.75 8.3125 3.75 8.3125 1 8 C-1.3125 5.5 -1.3125 5.5 -3 3 C-2.01 2.01 -1.02 1.02 0 0 Z " fill="#D6D9E3" transform="translate(270,127)"/>
<path d="M0 0 C4.85967024 2.50346649 8.27856704 6.08552441 12 10 C10.68 10.33 9.36 10.66 8 11 C8 10.34 8 9.68 8 9 C7.4225 8.7525 6.845 8.505 6.25 8.25 C3.65091342 6.80606301 1.92163162 5.26478013 0 3 C0 2.01 0 1.02 0 0 Z " fill="#081E5B" transform="translate(245,17)"/>
<path d="M0 0 C7.02952752 0.4535179 12.5849443 2.12059087 19 5 C18.67 5.66 18.34 6.32 18 7 C17.34 7 16.68 7 16 7 C16 6.34 16 5.68 16 5 C15.26394531 4.97421875 14.52789062 4.9484375 13.76953125 4.921875 C4.07732865 4.35852373 4.07732865 4.35852373 0 0 Z " fill="#E4F2FC" transform="translate(357,153)"/>
<path d="M0 0 C0.33 2.31 0.66 4.62 1 7 C0.01 7.495 0.01 7.495 -1 8 C-1 7.34 -1 6.68 -1 6 C-2.65 6 -4.3 6 -6 6 C-6.33 4.68 -6.66 3.36 -7 2 C-4.35261084 0.5393715 -3.10551666 0 0 0 Z " fill="#C2CAE4" transform="translate(286,137)"/>
<path d="M0 0 C1.25 2.4375 1.25 2.4375 2 5 C1.67 5.66 1.34 6.32 1 7 C1.66 7 2.32 7 3 7 C3.33 7.99 3.66 8.98 4 10 C3.34 10 2.68 10 2 10 C2 9.34 2 8.68 2 8 C1.01 7.67 0.02 7.34 -1 7 C-1 6.34 -1 5.68 -1 5 C-1.61875 4.731875 -2.2375 4.46375 -2.875 4.1875 C-5 3 -5 3 -7 0 C-3.98968256 -0.93423645 -3.13349732 -1.04449911 0 0 Z " fill="#9596A0" transform="translate(352,29)"/>
<path d="M0 0 C0.598125 0.474375 1.19625 0.94875 1.8125 1.4375 C4.00382924 3.16465744 4.00382924 3.16465744 7 4 C6.67 5.65 6.34 7.3 6 9 C6.66 9 7.32 9 8 9 C7.67 9.66 7.34 10.32 7 11 C5.2925002 9.71937515 3.62626404 8.38232443 2 7 C2 6.34 2 5.68 2 5 C1.34 5 0.68 5 0 5 C0 4.34 0 3.68 0 3 C-0.99 2.67 -1.98 2.34 -3 2 C-2.01 1.34 -1.02 0.68 0 0 Z " fill="#999BA9" transform="translate(215,267)"/>
<path d="M0 0 C2.475 0.495 2.475 0.495 5 1 C5 1.99 5 2.98 5 4 C5.66 4.33 6.32 4.66 7 5 C6.34 6.65 5.68 8.3 5 10 C4.01 9.67 3.02 9.34 2 9 C1.26953125 6.93359375 1.26953125 6.93359375 0.8125 4.4375 C0.65394531 3.61121094 0.49539062 2.78492188 0.33203125 1.93359375 C0.16767578 0.97646484 0.16767578 0.97646484 0 0 Z " fill="#26509F" transform="translate(163,213)"/>
<path d="M0 0 C0.4375 2.125 0.4375 2.125 0 5 C-2.12689146 7.276147 -4.5023433 9.1458722 -7 11 C-7 10.01 -7 9.02 -7 8 C-6.34 8 -5.68 8 -5 8 C-5.33 5.69 -5.66 3.38 -6 1 C-1.125 0 -1.125 0 0 0 Z " fill="#234082" transform="translate(262,64)"/>
<path d="M0 0 C0.99 0.33 1.98 0.66 3 1 C3.8125 2.875 3.8125 2.875 4 5 C3.01 6.485 3.01 6.485 2 8 C0.68 7.67 -0.64 7.34 -2 7 C-2.6875 5.1875 -2.6875 5.1875 -3 3 C-1.5625 1.25 -1.5625 1.25 0 0 Z " fill="#D9DEEC" transform="translate(180,63)"/>
<path d="M0 0 C4.25177923 0.47241991 6.29969203 2.84964071 9 6 C9 6.99 9 7.98 9 9 C7.68 8.67 6.36 8.34 5 8 C5 7.34 5 6.68 5 6 C4.01 6 3.02 6 2 6 C1.34 4.02 0.68 2.04 0 0 Z " fill="#072B79" transform="translate(236,10)"/>
<path d="M0 0 C0.08378906 0.59941406 0.16757812 1.19882812 0.25390625 1.81640625 C1.22031888 4.64480761 2.46140467 5.3210978 4.9375 6.9375 C8.26287918 9.27537839 10.03423632 10.89550434 11 15 C7.6778653 13.5376608 5.30686017 11.69193394 2.6875 9.1875 C1.96949219 8.52105469 1.25148438 7.85460937 0.51171875 7.16796875 C-1 5 -1 5 -0.73046875 2.23828125 C-0.48941406 1.49964844 -0.24835938 0.76101563 0 0 Z " fill="#021757" transform="translate(257,316)"/>
<path d="M0 0 C-1.23924145 4.95696581 -2.78577758 7.11658466 -7 10 C-7.33 9.01 -7.66 8.02 -8 7 C-7.34 6.67 -6.68 6.34 -6 6 C-6.33 4.68 -6.66 3.36 -7 2 C-4 0 -4 0 0 0 Z " fill="#CECDCB" transform="translate(255,260)"/>
<path d="M0 0 C0.66 0.99 1.32 1.98 2 3 C-2.30635874 6.12211008 -6.73783128 8.86021852 -12 10 C-14.2421875 9.57421875 -14.2421875 9.57421875 -16 9 C-14.54618103 8.30300448 -13.08677047 7.61766134 -11.625 6.9375 C-10.40683594 6.36322266 -10.40683594 6.36322266 -9.1640625 5.77734375 C-8.44992188 5.52082031 -7.73578125 5.26429688 -7 5 C-6.34 5.33 -5.68 5.66 -5 6 C-5 5.34 -5 4.68 -5 4 C-4.360625 3.71125 -3.72125 3.4225 -3.0625 3.125 C-0.84793921 2.17176549 -0.84793921 2.17176549 0 0 Z " fill="#E6F0FA" transform="translate(220,205)"/>
<path d="M0 0 C-0.25 2.375 -0.25 2.375 -1 5 C-2.875 6.375 -2.875 6.375 -5 7 C-5.99 6.67 -6.98 6.34 -8 6 C-7.1875 3.5625 -7.1875 3.5625 -6 1 C-3 0 -3 0 0 0 Z " fill="#F0ECEF" transform="translate(304,84)"/>
<path d="M0 0 C-0.33 1.98 -0.66 3.96 -1 6 C-1.66 6 -2.32 6 -3 6 C-3 5.01 -3 4.02 -3 3 C-3.7425 3.37125 -4.485 3.7425 -5.25 4.125 C-8 5 -8 5 -10.3125 4.125 C-10.869375 3.75375 -11.42625 3.3825 -12 3 C-4.71428571 -0.42857143 -4.71428571 -0.42857143 0 0 Z " fill="#7D93C2" transform="translate(225,209)"/>
<path d="M0 0 C-0.33 1.98 -0.66 3.96 -1 6 C-4 6 -7 6 -10 6 C-4.15384615 0 -4.15384615 0 0 0 Z " fill="#113881" transform="translate(224,20)"/>
<path d="M0 0 C1.13199353 0.9080162 2.25532363 1.82683826 3.375 2.75 C4.00148438 3.26046875 4.62796875 3.7709375 5.2734375 4.296875 C7.08312318 6.08199481 8.00117455 7.67949644 9 10 C5.09061496 8.69687165 2.58220925 7.25167091 0 4 C0 2.68 0 1.36 0 0 Z " fill="#1D3665" transform="translate(375,152)"/>
<path d="M0 0 C0.66 -0.33 1.32 -0.66 2 -1 C3.9453125 -0.66015625 3.9453125 -0.66015625 6.125 -0.0625 C7.21167969 0.22947266 7.21167969 0.22947266 8.3203125 0.52734375 C8.87460937 0.68332031 9.42890625 0.83929688 10 1 C10 1.33 10 1.66 10 2 C3.07 2 -3.86 2 -11 2 C-11 1.67 -11 1.34 -11 1 C-3.375 -1.125 -3.375 -1.125 0 0 Z " fill="#5572AF" transform="translate(344,149)"/>
<path d="M0 0 C0.66 0.33 1.32 0.66 2 1 C1.01 2.485 1.01 2.485 0 4 C0.66 5.32 1.32 6.64 2 8 C0.34385343 8.38218767 -1.32457024 8.71395102 -3 9 C-4 8 -4 8 -4.3125 5.625 C-4 3 -4 3 -2 1.1875 C-1.34 0.795625 -0.68 0.40375 0 0 Z " fill="#E6E4E5" transform="translate(290,95)"/>
<path d="M0 0 C1.65 0 3.3 0 5 0 C5.33 0.66 5.66 1.32 6 2 C5.01 2 4.02 2 3 2 C3 2.99 3 3.98 3 5 C2.01 5 1.02 5 0 5 C0 5.99 0 6.98 0 8 C-0.99 8 -1.98 8 -3 8 C-3.33 8.66 -3.66 9.32 -4 10 C-4.33 9.34 -4.66 8.68 -5 8 C-4.34 7.01 -3.68 6.02 -3 5 C-2.34 5.33 -1.68 5.66 -1 6 C-1 5.34 -1 4.68 -1 4 C-0.34 4 0.32 4 1 4 C0.67 2.68 0.34 1.36 0 0 Z " fill="#4F70B4" transform="translate(325,328)"/>
<path d="M0 0 C1.65 0 3.3 0 5 0 C4.06725891 1.12894876 3.12859878 2.25300876 2.1875 3.375 C1.66542969 4.00148438 1.14335937 4.62796875 0.60546875 5.2734375 C-1 7 -1 7 -4 9 C-3.67 7.02 -3.34 5.04 -3 3 C-2.01 3 -1.02 3 0 3 C0 2.01 0 1.02 0 0 Z " fill="#9095AC" transform="translate(346,310)"/>
<path d="M0 0 C0.33 0.99 0.66 1.98 1 3 C0.01 3.495 0.01 3.495 -1 4 C-1 4.66 -1 5.32 -1 6 C-2.65 6 -4.3 6 -6 6 C-6 4.68 -6 3.36 -6 2 C-2.25 0 -2.25 0 0 0 Z " fill="#F6F6F8" transform="translate(249,264)"/>
<path d="M0 0 C0.33 0 0.66 0 1 0 C1.12910853 6.74233419 0.797837 13.30386804 0 20 C-0.33 20 -0.66 20 -1 20 C-1.2210949 17.04210873 -1.42740245 14.08447236 -1.625 11.125 C-1.68945312 10.28324219 -1.75390625 9.44148437 -1.8203125 8.57421875 C-1.871875 7.76855469 -1.9234375 6.96289062 -1.9765625 6.1328125 C-2.02893066 5.38918457 -2.08129883 4.64555664 -2.13525391 3.87939453 C-2 2 -2 2 0 0 Z " fill="#A8A6A4" transform="translate(205,136)"/>
<path d="M0 0 C0.33 0.66 0.66 1.32 1 2 C0.67 2.99 0.34 3.98 0 5 C-0.66 5 -1.32 5 -2 5 C-1.649375 5.598125 -1.29875 6.19625 -0.9375 6.8125 C0 9 0 9 -1 12 C-2.32 10.68 -3.64 9.36 -5 8 C-3.8141763 4.62496331 -2.72426311 2.35277269 0 0 Z " fill="#2C4B90" transform="translate(280,292)"/>
<path d="M0 0 C1.5 1.375 1.5 1.375 3 3 C3 3.66 3 4.32 3 5 C3.66 5 4.32 5 5 5 C5.33 6.65 5.66 8.3 6 10 C3.96166576 8.7260411 1.96147874 7.38938077 0 6 C0 5.34 0 4.68 0 4 C-0.66 4 -1.32 4 -2 4 C-2 3.34 -2 2.68 -2 2 C-1.34 2 -0.68 2 0 2 C0 1.34 0 0.68 0 0 Z " fill="#6D7899" transform="translate(298,156)"/>
<path d="M0 0 C0.8353125 0.37125 0.8353125 0.37125 1.6875 0.75 C-1.09938655 3.84654061 -3.37760598 5.40385205 -7.3125 6.75 C-8.3025 7.245 -8.3025 7.245 -9.3125 7.75 C-7.69865111 3.642021 -4.79776509 -0.51867731 0 0 Z " fill="#495880" transform="translate(206.3125,37.25)"/>
<path d="M0 0 C3.33727786 1.17255709 5.77437487 2.18868404 8 5 C8 5.66 8 6.32 8 7 C5.03 6.505 5.03 6.505 2 6 C1.67 5.01 1.34 4.02 1 3 C0.01 3.495 0.01 3.495 -1 4 C-0.67 2.68 -0.34 1.36 0 0 Z " fill="#B3B1AF" transform="translate(138,286)"/>
<path d="M0 0 C1.43088528 2.86177057 0.59991697 4.93375773 0 8 C-0.99 8.33 -1.98 8.66 -3 9 C-4.32 8.34 -5.64 7.68 -7 7 C-4.69 4.69 -2.38 2.38 0 0 Z " fill="#9BA0B4" transform="translate(187,54)"/>
<path d="M0 0 C1 3 1 3 1 6 C-0.96466413 7.06775224 -2.96855359 8.06553465 -5 9 C-5.66 8.67 -6.32 8.34 -7 8 C-5.625 6 -5.625 6 -4 4 C-3.34 4 -2.68 4 -2 4 C-1.34 2.68 -0.68 1.36 0 0 Z " fill="#193775" transform="translate(275,297)"/>
<path d="M0 0 C0.99 0.33 1.98 0.66 3 1 C2.6875 3.375 2.6875 3.375 2 6 C1.01 6.66 0.02 7.32 -1 8 C-1.33 5.69 -1.66 3.38 -2 1 C-1.34 0.67 -0.68 0.34 0 0 Z " fill="#7B86A9" transform="translate(236,88)"/>
<path d="M0 0 C0.99 0.33 1.98 0.66 3 1 C2.01 1 1.02 1 0 1 C0 0.67 0 0.34 0 0 Z M0 2 C0.66 2.66 1.32 3.32 2 4 C1.01 4.495 1.01 4.495 0 5 C0 4.01 0 3.02 0 2 Z M-4 4 C-2.0625 4.375 -2.0625 4.375 0 5 C0.33 5.66 0.66 6.32 1 7 C-0.98 7.66 -2.96 8.32 -5 9 C-4.67 7.35 -4.34 5.7 -4 4 Z " fill="#A2AFD8" transform="translate(302,271)"/>
<path d="M0 0 C1.65 0 3.3 0 5 0 C6.32 2.64 7.64 5.28 9 8 C4.46213776 5.73106888 3.05321843 3.90133466 0 0 Z " fill="#7B7F90" transform="translate(280,143)"/>
<path d="M0 0 C2.31 0.33 4.62 0.66 7 1 C6.34 2.32 5.68 3.64 5 5 C4.01 5 3.02 5 2 5 C1.01 5.495 1.01 5.495 0 6 C0 4.02 0 2.04 0 0 Z " fill="#CBD3E7" transform="translate(313,98)"/>
<path d="M0 0 C1.98 0.66 3.96 1.32 6 2 C6 3.32 6 4.64 6 6 C6.66 6 7.32 6 8 6 C8.33 6.99 8.66 7.98 9 9 C8.34 9 7.68 9 7 9 C7 8.34 7 7.68 7 7 C6.360625 6.731875 5.72125 6.46375 5.0625 6.1875 C3 5 3 5 2 2 C1.34 2 0.68 2 0 2 C0 1.34 0 0.68 0 0 Z " fill="#182651" transform="translate(150,207)"/>
<path d="M0 0 C1.65 0 3.3 0 5 0 C5.33 0.99 5.66 1.98 6 3 C3.35261084 4.4606285 2.10551666 5 -1 5 C-0.67 3.35 -0.34 1.7 0 0 Z " fill="#7C94C9" transform="translate(338,122)"/>
<path d="M0 0 C0.58265625 0.23589844 1.1653125 0.47179687 1.765625 0.71484375 C0.50620114 1.9144375 -0.76732786 3.09923818 -2.046875 4.27734375 C-3.10841797 5.26927734 -3.10841797 5.26927734 -4.19140625 6.28125 C-4.86558594 6.75433594 -5.53976563 7.22742188 -6.234375 7.71484375 C-7.224375 7.38484375 -8.214375 7.05484375 -9.234375 6.71484375 C-8.16721428 5.51278911 -7.07999163 4.32852042 -5.984375 3.15234375 C-5.38109375 2.49105469 -4.7778125 1.82976562 -4.15625 1.1484375 C-2.234375 -0.28515625 -2.234375 -0.28515625 0 0 Z " fill="#BDBBBB" transform="translate(162.234375,82.28515625)"/>
<path d="M0 0 C1.34313399 0.64669414 2.67391178 1.31903578 4 2 C4.886875 2.433125 5.77375 2.86625 6.6875 3.3125 C9 5 9 5 9.8125 7.6875 C9.874375 8.450625 9.93625 9.21375 10 10 C8.2925002 8.71937515 6.62626404 7.38232443 5 6 C5 5.34 5 4.68 5 4 C4.360625 3.71125 3.72125 3.4225 3.0625 3.125 C1 2 1 2 0 0 Z " fill="#031B58" transform="translate(284,347)"/>
<path d="M0 0 C0.99 0 1.98 0 3 0 C1.4169423 4.2742558 -1.50568404 6.26531794 -5 9 C-5 7.68 -5 6.36 -5 5 C-4.01 5 -3.02 5 -2 5 C-2 4.01 -2 3.02 -2 2 C-1.34 1.34 -0.68 0.68 0 0 Z " fill="#43527D" transform="translate(330,328)"/>
<path d="M0 0 C3.35250701 0.57575664 4.93818629 1.59306263 7.25 4.0625 C8.03117187 4.88427734 8.03117187 4.88427734 8.828125 5.72265625 C9.21484375 6.14417969 9.6015625 6.56570312 10 7 C9.67 7.66 9.34 8.32 9 9 C7.49704815 7.69088122 5.99770689 6.37761608 4.5 5.0625 C3.6646875 4.33160156 2.829375 3.60070312 1.96875 2.84765625 C1.3190625 2.23792969 0.669375 1.62820312 0 1 C0 0.67 0 0.34 0 0 Z " fill="#5B6577" transform="translate(304,166)"/>
<path d="M0 0 C2 0 2 0 4.0625 1.6875 C6.17875625 4.21335423 6.64119018 5.77071161 7 9 C5.82460004 8.07347299 4.65989423 7.13336613 3.5 6.1875 C2.52546875 5.40439453 2.52546875 5.40439453 1.53125 4.60546875 C0 3 0 3 0 0 Z " fill="#9FA2AF" transform="translate(273,134)"/>
<path d="M0 0 C0.66 0.33 1.32 0.66 2 1 C2.144375 1.639375 2.28875 2.27875 2.4375 2.9375 C2.86165035 5.38210855 2.86165035 5.38210855 6 7 C5.67 7.99 5.34 8.98 5 10 C4.34 9.67 3.68 9.34 3 9 C3 8.34 3 7.68 3 7 C2.34 7 1.68 7 1 7 C1 6.34 1 5.68 1 5 C0.34 5 -0.32 5 -1 5 C-0.67 3.35 -0.34 1.7 0 0 Z " fill="#777F96" transform="translate(290,148)"/>
<path d="M0 0 C1.14926266 0.95421808 2.29430541 1.91352045 3.4375 2.875 C4.07558594 3.40867187 4.71367187 3.94234375 5.37109375 4.4921875 C7 6 7 6 8 8 C5.69 7.34 3.38 6.68 1 6 C0.67 4.02 0.34 2.04 0 0 Z " fill="#4F5972" transform="translate(337,115)"/>
<path d="M0 0 C0.969375 0.7425 1.93875 1.485 2.9375 2.25 C3.48277344 2.66765625 4.02804687 3.0853125 4.58984375 3.515625 C6.2692289 5.28339884 6.59922685 6.62579957 7 9 C5.8225266 8.26708288 4.65823146 7.51296199 3.5 6.75 C2.52546875 6.12351562 2.52546875 6.12351562 1.53125 5.484375 C1.0259375 4.99453125 0.520625 4.5046875 0 4 C0 2.68 0 1.36 0 0 Z " fill="#8A93B0" transform="translate(331,110)"/>
<path d="M0 0 C1.9375 0.8125 1.9375 0.8125 4 2 C4.33 2.99 4.66 3.98 5 5 C4.34 5.66 3.68 6.32 3 7 C0.875 6.625 0.875 6.625 -1 6 C-0.67 4.02 -0.34 2.04 0 0 Z " fill="#EEEFF5" transform="translate(155,304)"/>
<path d="M0 0 C2.625 0.9375 2.625 0.9375 5 2 C4.34 3.32 3.68 4.64 3 6 C2.34 6 1.68 6 1 6 C1 5.34 1 4.68 1 4 C0.34 4 -0.32 4 -1 4 C-1.33 3.01 -1.66 2.02 -2 1 C-1.34 0.67 -0.68 0.34 0 0 Z " fill="#E0E0ED" transform="translate(222,272)"/>
<path d="M0 0 C-0.3125 1.875 -0.3125 1.875 -1 4 C-1.99 4.66 -2.98 5.32 -4 6 C-4 5.34 -4 4.68 -4 4 C-4.99 3.67 -5.98 3.34 -7 3 C-7 2.34 -7 1.68 -7 1 C-4.50935112 0.31292445 -2.62113708 0 0 0 Z " fill="#C8C6CE" transform="translate(224,105)"/>
<path d="M0 0 C1.32 0.33 2.64 0.66 4 1 C4 1.99 4 2.98 4 4 C4.66 4.33 5.32 4.66 6 5 C5.67 5.99 5.34 6.98 5 8 C1.39345961 5.59563974 1.14547068 4.05320393 0 0 Z " fill="#B9C3DD" transform="translate(320,102)"/>
<path d="M0 0 C0.99 0.33 1.98 0.66 3 1 C-1.5 5.875 -1.5 5.875 -6 7 C-4.02 4.69 -2.04 2.38 0 0 Z " fill="#C7C6C7" transform="translate(143,99)"/>
<path d="M0 0 C0.66 0 1.32 0 2 0 C2 2.64 2 5.28 2 8 C1.34 8 0.68 8 0 8 C0 7.01 0 6.02 0 5 C-0.99 5.33 -1.98 5.66 -3 6 C-2.42655063 3.13275314 -2.1385485 2.1385485 0 0 Z " fill="#BFC0C1" transform="translate(175,66)"/>
<path d="M0 0 C1.98 0.495 1.98 0.495 4 1 C3.67 2.98 3.34 4.96 3 7 C1.68 6.34 0.36 5.68 -1 5 C-0.67 3.35 -0.34 1.7 0 0 Z " fill="#B2BEDE" transform="translate(188,54)"/>
<path d="M0 0 C0.99 0.33 1.98 0.66 3 1 C0.42215154 3.64752004 -1.91648098 5.94432065 -5 8 C-3.375 2.25 -3.375 2.25 0 0 Z " fill="#2A55A0" transform="translate(217,25)"/>
<path d="M0 0 C1.98 0.495 1.98 0.495 4 1 C3.67 2.65 3.34 4.3 3 6 C1.68 5.34 0.36 4.68 -1 4 C-0.67 2.68 -0.34 1.36 0 0 Z " fill="#E6E8F2" transform="translate(163,313)"/>
<path d="M0 0 C3.41158256 1.13719419 4.11854601 2.04342944 6 5 C6 5.66 6 6.32 6 7 C4.125 6.875 4.125 6.875 2 6 C0.75 2.9375 0.75 2.9375 0 0 Z " fill="#03236F" transform="translate(293,353)"/>
<path d="M0 0 C1.32 1.32 2.64 2.64 4 4 C1.36 4.33 -1.28 4.66 -4 5 C-3.6875 3.0625 -3.6875 3.0625 -3 1 C-2.01 0.67 -1.02 0.34 0 0 Z " fill="#C1C1CC" transform="translate(174,321)"/>
<path d="M0 0 C2.375 0.3125 2.375 0.3125 5 1 C5.66 1.99 6.32 2.98 7 4 C6.01 4.33 5.02 4.66 4 5 C1.8125 3.6875 1.8125 3.6875 0 2 C0 1.34 0 0.68 0 0 Z " fill="#DCD9D8" transform="translate(143,293)"/>
<path d="M0 0 C1.32 0.33 2.64 0.66 4 1 C2.02 3.97 2.02 3.97 0 7 C-0.66 5.68 -1.32 4.36 -2 3 C-1.34 2.01 -0.68 1.02 0 0 Z " fill="#DBE1EF" transform="translate(258,233)"/>
<path d="M0 0 C0.99 0.33 1.98 0.66 3 1 C2.34 1 1.68 1 1 1 C1.66 3.31 2.32 5.62 3 8 C1 8 1 8 -0.625 6.75 C-2 5 -2 5 -2 1 C-1.34 0.67 -0.68 0.34 0 0 Z " fill="#173270" transform="translate(163,215)"/>
<path d="M0 0 C0.33 0.99 0.66 1.98 1 3 C1.99 3 2.98 3 4 3 C4 3.66 4 4.32 4 5 C1.69 4.67 -0.62 4.34 -3 4 C-3 3.01 -3 2.02 -3 1 C-2.01 1.33 -1.02 1.66 0 2 C0 1.34 0 0.68 0 0 Z " fill="#E1EBF3" transform="translate(165,209)"/>
<path d="M0 0 C1.32 0.66 2.64 1.32 4 2 C4 3.32 4 4.64 4 6 C1.525 5.01 1.525 5.01 -1 4 C-0.67 2.68 -0.34 1.36 0 0 Z " fill="#1B4DA4" transform="translate(367,148)"/>
<path d="M0 0 C0.75 1.75 0.75 1.75 1 4 C-0.9375 6.25 -0.9375 6.25 -3 8 C-3.66 7.67 -4.32 7.34 -5 7 C-3.70700306 4.11562221 -2.34058637 2.12780579 0 0 Z " fill="#939193" transform="translate(275,109)"/>
<path d="M0 0 C0.99 0.33 1.98 0.66 3 1 C2.67 1.66 2.34 2.32 2 3 C2.66 3.33 3.32 3.66 4 4 C2.02 4.66 0.04 5.32 -2 6 C-2 4.68 -2 3.36 -2 2 C-1.34 2 -0.68 2 0 2 C0 1.34 0 0.68 0 0 Z " fill="#DAD8D9" transform="translate(136,106)"/>
<path d="M0 0 C1.98 0.495 1.98 0.495 4 1 C4 1.66 4 2.32 4 3 C4.66 3 5.32 3 6 3 C6 4.32 6 5.64 6 7 C5.34 7 4.68 7 4 7 C3.67 5.35 3.34 3.7 3 2 C1.68 2.33 0.36 2.66 -1 3 C-0.67 2.01 -0.34 1.02 0 0 Z " fill="#ABA8A9" transform="translate(301,82)"/>
<path d="M0 0 C-1.1875 2 -1.1875 2 -3 4 C-5.6875 4.25 -5.6875 4.25 -8 4 C-8 3.34 -8 2.68 -8 2 C-3.61016949 -1.20338983 -3.61016949 -1.20338983 0 0 Z " fill="#7184B1" transform="translate(203,43)"/>
<path d="M0 0 C2.31 1.98 4.62 3.96 7 6 C5.68 6.33 4.36 6.66 3 7 C0 2.25 0 2.25 0 0 Z " fill="#A5A7B2" transform="translate(181,328)"/>
<path d="M0 0 C1.32 0.66 2.64 1.32 4 2 C4 2.99 4 3.98 4 5 C2.68 5.33 1.36 5.66 0 6 C-0.38218767 4.34385343 -0.71395102 2.67542976 -1 1 C-0.67 0.67 -0.34 0.34 0 0 Z " fill="#4D629F" transform="translate(180,232)"/>
<path d="M0 0 C2.97 0.495 2.97 0.495 6 1 C6 2.32 6 3.64 6 5 C5.34 4.34 4.68 3.68 4 3 C3.01 3.33 2.02 3.66 1 4 C0.67 2.68 0.34 1.36 0 0 Z " fill="#C8CDDA" transform="translate(252,228)"/>
<path d="M0 0 C1.98 0 3.96 0 6 0 C6 0.66 6 1.32 6 2 C7.65 2.33 9.3 2.66 11 3 C10.67 3.66 10.34 4.32 10 5 C6.08788267 3.84414715 3.1254959 2.64465038 0 0 Z " fill="#F1FAFC" transform="translate(357,153)"/>
<path d="M0 0 C1.98 1.65 3.96 3.3 6 5 C5.67 5.99 5.34 6.98 5 8 C2.5 5.6875 2.5 5.6875 0 3 C0 2.01 0 1.02 0 0 Z " fill="#445B8A" transform="translate(353,131)"/>
<path d="M0 0 C2.31 1.98 4.62 3.96 7 6 C5.68 6.33 4.36 6.66 3 7 C0 3.375 0 3.375 0 0 Z " fill="#81899D" transform="translate(324,103)"/>
<path d="M0 0 C3.7952131 1.49097658 5.61042731 3.75700849 8 7 C5.125 6.3125 5.125 6.3125 2 5 C0.625 2.375 0.625 2.375 0 0 Z " fill="#92949B" transform="translate(312,92)"/>
<path d="M0 0 C1.98 0.495 1.98 0.495 4 1 C3.01 2.485 3.01 2.485 2 4 C1.36707617 6.11280345 1.36707617 6.11280345 1 8 C1 7.34 1 6.68 1 6 C0.34 6 -0.32 6 -1 6 C-0.67 4.02 -0.34 2.04 0 0 Z " fill="#5776B6" transform="translate(285,288)"/>
<path d="M0 0 C0.66 0 1.32 0 2 0 C3.125 5.75 3.125 5.75 2 8 C0.4375 6.8125 0.4375 6.8125 -1 5 C-0.6875 2.3125 -0.6875 2.3125 0 0 Z " fill="#EDEFF7" transform="translate(316,256)"/>
<path d="M0 0 C0.66 0 1.32 0 2 0 C2 0.66 2 1.32 2 2 C2.66 2 3.32 2 4 2 C4 3.65 4 5.3 4 7 C2 5.75 2 5.75 0 4 C0 2.68 0 1.36 0 0 Z " fill="#384E83" transform="translate(175,229)"/>
<path d="M0 0 C0.66 0 1.32 0 2 0 C2.33 1.98 2.66 3.96 3 6 C2.01 6.66 1.02 7.32 0 8 C0 5.33333333 0 2.66666667 0 0 Z " fill="#3058AD" transform="translate(362,143)"/>
<path d="M0 0 C0.99 0.33 1.98 0.66 3 1 C3 2.32 3 3.64 3 5 C2.34 5 1.68 5 1 5 C1 5.66 1 6.32 1 7 C0.34 7 -0.32 7 -1 7 C-1.33 6.01 -1.66 5.02 -2 4 C-1.01 4 -0.02 4 1 4 C0.67 2.68 0.34 1.36 0 0 Z " fill="#98A0B8" transform="translate(232,92)"/>
<path d="M0 0 C2.475 0.495 2.475 0.495 5 1 C5.33 2.32 5.66 3.64 6 5 C3.5625 4.1875 3.5625 4.1875 1 3 C0.67 2.01 0.34 1.02 0 0 Z " fill="#E6EEF7" transform="translate(301,91)"/>
<path d="M0 0 C0.99 0 1.98 0 3 0 C3 0.66 3 1.32 3 2 C3.66 2 4.32 2 5 2 C5 2.99 5 3.98 5 5 C3.68 4.67 2.36 4.34 1 4 C0.67 2.68 0.34 1.36 0 0 Z " fill="#E4E9F2" transform="translate(177,66)"/>
<path d="M0 0 C1.98 0 3.96 0 6 0 C6 0.66 6 1.32 6 2 C5.01 2.33 4.02 2.66 3 3 C2.01 4.485 2.01 4.485 1 6 C1 5.01 1 4.02 1 3 C0.34 2.67 -0.32 2.34 -1 2 C-0.67 1.34 -0.34 0.68 0 0 Z " fill="#073797" transform="translate(262,58)"/>
<path d="M0 0 C0.99 0 1.98 0 3 0 C4.75 1.8125 4.75 1.8125 6 4 C5.67 4.99 5.34 5.98 5 7 C1.67098753 4.78065836 1.24976756 3.65316671 0 0 Z " fill="#BDBFCA" transform="translate(366,48)"/>
<path d="M0 0 C0.66 0 1.32 0 2 0 C2 0.99 2 1.98 2 3 C1.34 3 0.68 3 0 3 C0 3.66 0 4.32 0 5 C-1.65 5 -3.3 5 -5 5 C-5.33 4.01 -5.66 3.02 -6 2 C-5.34 2 -4.68 2 -4 2 C-4 2.66 -4 3.32 -4 4 C-3.01 4 -2.02 4 -1 4 C-0.67 2.68 -0.34 1.36 0 0 Z " fill="#918E8C" transform="translate(234,281)"/>
<path d="M0 0 C2.02054804 1.64169528 4.02043058 3.30911778 6 5 C6 5.33 6 5.66 6 6 C4.35 6 2.7 6 1 6 C0.67 4.02 0.34 2.04 0 0 Z " fill="#435074" transform="translate(345,123)"/>
<path d="M0 0 C0.33 0.99 0.66 1.98 1 3 C3.01508358 3.73323796 3.01508358 3.73323796 5 4 C4.67 4.66 4.34 5.32 4 6 C1.9375 6.625 1.9375 6.625 0 7 C-1.04449911 3.86650268 -0.93423645 3.01031744 0 0 Z " fill="#043396" transform="translate(268,41)"/>
</svg>
